<?xml version="1.0" encoding="us-ascii" standalone="no"?><svg xmlns="http://www.w3.org/2000/svg" xmlns:xlink="http://www.w3.org/1999/xlink" contentStyleType="text/css" height="1164px" preserveAspectRatio="none" style="width:825px;height:1164px;background:#FFFFFF;" version="1.1" viewBox="0 0 825 1164" width="825px" zoomAndPan="magnify"><defs/><g><!--cluster enums--><g id="cluster_enums"><path d="M524.5,121 L572.5,121 A3.75,3.75 0 0 1 575,123.5 L582,145.6211 L815.5,145.6211 A2.5,2.5 0 0 1 818,148.1211 L818,498.5 A2.5,2.5 0 0 1 815.5,501 L524.5,501 A2.5,2.5 0 0 1 522,498.5 L522,123.5 A2.5,2.5 0 0 1 524.5,121 " fill="#DDDDDD" style="stroke:#000000;stroke-width:1.5;"/><line style="stroke:#000000;stroke-width:1.5;" x1="522" x2="582" y1="145.6211" y2="145.6211"/><text fill="#000000" font-family="sans-serif" font-size="14" font-weight="bold" lengthAdjust="spacing" textLength="47" x="526" y="138.1074">enums</text></g><!--class BodyTypes--><g id="elem_BodyTypes"><rect codeLine="3" fill="#F1F1F1" height="327.3164" id="BodyTypes" rx="2.5" ry="2.5" style="stroke:#181818;stroke-width:0.5;" width="103" x="698.5" y="158"/><ellipse cx="713.5" cy="174" fill="#EB937F" rx="11" ry="11" style="stroke:#181818;stroke-width:1.0;"/><path d="M712.3594,174.7969 L712.3594,177.2969 L716.6875,177.2969 L716.6875,176.375 Q716.6875,175.7656 716.9219,175.5 Q717.1719,175.2344 717.5469,175.2344 Q717.9219,175.2344 718.1563,175.5 Q718.3906,175.7656 718.3906,176.375 L718.3906,179 L710.3906,179 Q709.7656,179 709.5,178.7656 Q709.25,178.5313 709.25,178.1406 Q709.25,177.7656 709.5156,177.5313 Q709.7813,177.2969 710.3906,177.2969 L710.6563,177.2969 L710.6563,170.6406 L710.3906,170.6406 Q709.7656,170.6406 709.5,170.4063 Q709.25,170.1719 709.25,169.7813 Q709.25,169.4063 709.5,169.1719 Q709.7656,168.9375 710.3906,168.9375 L718.0156,168.9375 L718.0156,171.5313 Q718.0156,172.1406 717.7813,172.4063 Q717.5625,172.6563 717.1719,172.6563 Q716.7969,172.6563 716.5625,172.4063 Q716.3281,172.1406 716.3281,171.5313 L716.3281,170.6406 L712.3594,170.6406 L712.3594,173.0938 L713.8438,173.0938 Q713.8438,172.4375 713.9688,172.25 Q714.2344,171.8438 714.7031,171.8438 Q715.0781,171.8438 715.3125,172.1094 Q715.5469,172.3594 715.5469,172.9688 L715.5469,174.9375 Q715.5469,175.4844 715.4219,175.6719 Q715.1563,176.0625 714.7031,176.0625 Q714.2344,176.0625 713.9688,175.6563 Q713.8438,175.4688 713.8438,174.7969 L712.3594,174.7969 Z " fill="#000000"/><text fill="#000000" font-family="sans-serif" font-size="14" lengthAdjust="spacing" textLength="71" x="727.5" y="179.7969">BodyTypes</text><line style="stroke:#181818;stroke-width:0.5;" x1="699.5" x2="800.5" y1="190" y2="190"/><text fill="#000000" font-family="sans-serif" font-size="14" lengthAdjust="spacing" textLength="45" x="704.5" y="209.1074">MICRO</text><text fill="#000000" font-family="sans-serif" font-size="14" lengthAdjust="spacing" textLength="46" x="704.5" y="227.7285">SEDAN</text><text fill="#000000" font-family="sans-serif" font-size="14" lengthAdjust="spacing" textLength="28" x="704.5" y="246.3496">CUV</text><text fill="#000000" font-family="sans-serif" font-size="14" lengthAdjust="spacing" textLength="27" x="704.5" y="264.9707">SUV</text><text fill="#000000" font-family="sans-serif" font-size="14" lengthAdjust="spacing" textLength="83" x="704.5" y="283.5918">HATCHBACK</text><text fill="#000000" font-family="sans-serif" font-size="14" lengthAdjust="spacing" textLength="48" x="704.5" y="302.2129">COUPE</text><text fill="#000000" font-family="sans-serif" font-size="14" lengthAdjust="spacing" textLength="53" x="704.5" y="320.834">MINIVAN</text><text fill="#000000" font-family="sans-serif" font-size="14" lengthAdjust="spacing" textLength="52" x="704.5" y="339.4551">CABRIO</text><text fill="#000000" font-family="sans-serif" font-size="14" lengthAdjust="spacing" textLength="77" x="704.5" y="358.0762">ROADSTER</text><text fill="#000000" font-family="sans-serif" font-size="14" lengthAdjust="spacing" textLength="75" x="704.5" y="376.6973">SUPERCAR</text><text fill="#000000" font-family="sans-serif" font-size="14" lengthAdjust="spacing" textLength="49" x="704.5" y="395.3184">PICKUP</text><text fill="#000000" font-family="sans-serif" font-size="14" lengthAdjust="spacing" textLength="27" x="704.5" y="413.9395">VAN</text><text fill="#000000" font-family="sans-serif" font-size="14" lengthAdjust="spacing" textLength="72" x="704.5" y="432.5605">LIMOUSINE</text><text fill="#000000" font-family="sans-serif" font-size="14" lengthAdjust="spacing" textLength="85" x="704.5" y="451.1816">CAMPERVAN</text><text fill="#000000" font-family="sans-serif" font-size="14" lengthAdjust="spacing" textLength="47" x="704.5" y="469.8027">TRUCK</text><line style="stroke:#181818;stroke-width:0.5;" x1="699.5" x2="800.5" y1="477.3164" y2="477.3164"/></g><!--class Seasonalities--><g id="elem_Seasonalities"><rect codeLine="21" fill="#F1F1F1" height="103.8633" id="Seasonalities" rx="2.5" ry="2.5" style="stroke:#181818;stroke-width:0.5;" width="125" x="538.5" y="269.5"/><ellipse cx="557.55" cy="285.5" fill="#EB937F" rx="11" ry="11" style="stroke:#181818;stroke-width:1.0;"/><path d="M556.4094,286.2969 L556.4094,288.7969 L560.7375,288.7969 L560.7375,287.875 Q560.7375,287.2656 560.9719,287 Q561.2219,286.7344 561.5969,286.7344 Q561.9719,286.7344 562.2063,287 Q562.4406,287.2656 562.4406,287.875 L562.4406,290.5 L554.4406,290.5 Q553.8156,290.5 553.55,290.2656 Q553.3,290.0313 553.3,289.6406 Q553.3,289.2656 553.5656,289.0313 Q553.8313,288.7969 554.4406,288.7969 L554.7063,288.7969 L554.7063,282.1406 L554.4406,282.1406 Q553.8156,282.1406 553.55,281.9063 Q553.3,281.6719 553.3,281.2813 Q553.3,280.9063 553.55,280.6719 Q553.8156,280.4375 554.4406,280.4375 L562.0656,280.4375 L562.0656,283.0313 Q562.0656,283.6406 561.8313,283.9063 Q561.6125,284.1563 561.2219,284.1563 Q560.8469,284.1563 560.6125,283.9063 Q560.3781,283.6406 560.3781,283.0313 L560.3781,282.1406 L556.4094,282.1406 L556.4094,284.5938 L557.8938,284.5938 Q557.8938,283.9375 558.0188,283.75 Q558.2844,283.3438 558.7531,283.3438 Q559.1281,283.3438 559.3625,283.6094 Q559.5969,283.8594 559.5969,284.4688 L559.5969,286.4375 Q559.5969,286.9844 559.4719,287.1719 Q559.2063,287.5625 558.7531,287.5625 Q558.2844,287.5625 558.0188,287.1563 Q557.8938,286.9688 557.8938,286.2969 L556.4094,286.2969 Z " fill="#000000"/><text fill="#000000" font-family="sans-serif" font-size="14" lengthAdjust="spacing" textLength="84" x="572.45" y="291.2969">Seasonalities</text><line style="stroke:#181818;stroke-width:0.5;" x1="539.5" x2="662.5" y1="301.5" y2="301.5"/><text fill="#000000" font-family="sans-serif" font-size="14" lengthAdjust="spacing" textLength="59" x="544.5" y="320.6074">SUMMER</text><text fill="#000000" font-family="sans-serif" font-size="14" lengthAdjust="spacing" textLength="53" x="544.5" y="339.2285">WINTER</text><text fill="#000000" font-family="sans-serif" font-size="14" lengthAdjust="spacing" textLength="113" x="544.5" y="357.8496">MULTISEASONAL</text><line style="stroke:#181818;stroke-width:0.5;" x1="539.5" x2="662.5" y1="365.3633" y2="365.3633"/></g><!--class Car--><g id="elem_Car"><rect codeLine="28" fill="#F1F1F1" height="629.2539" id="Car" rx="2.5" ry="2.5" style="stroke:#181818;stroke-width:0.5;" width="195" x="132.5" y="7"/><ellipse cx="214.25" cy="23" fill="#ADD1B2" rx="11" ry="11" style="stroke:#181818;stroke-width:1.0;"/><path d="M217.0156,18.875 Q217.1719,18.6563 217.3594,18.5469 Q217.5469,18.4375 217.7656,18.4375 Q218.1406,18.4375 218.375,18.7031 Q218.6094,18.9531 218.6094,19.5625 L218.6094,21.0156 Q218.6094,21.625 218.375,21.8906 Q218.1406,22.1563 217.7656,22.1563 Q217.4219,22.1563 217.2188,21.9531 Q217.0156,21.7656 216.9063,21.25 Q216.8594,20.8906 216.6719,20.7031 Q216.3438,20.3281 215.7344,20.1094 Q215.125,19.8906 214.5,19.8906 Q213.7344,19.8906 213.0938,20.2188 Q212.4688,20.5469 211.9688,21.2969 Q211.4844,22.0469 211.4844,23.0781 L211.4844,24.1719 Q211.4844,25.4063 212.375,26.2344 Q213.2656,27.0469 214.8594,27.0469 Q215.7969,27.0469 216.4531,26.7969 Q216.8438,26.6406 217.2656,26.2031 Q217.5313,25.9375 217.6719,25.8594 Q217.8281,25.7813 218.0313,25.7813 Q218.3594,25.7813 218.6094,26.0469 Q218.875,26.2969 218.875,26.6406 Q218.875,26.9844 218.5313,27.3906 Q218.0313,27.9688 217.2344,28.2969 Q216.1563,28.75 214.8594,28.75 Q213.3438,28.75 212.1406,28.125 Q211.1563,27.625 210.4688,26.5625 Q209.7813,25.4844 209.7813,24.2031 L209.7813,23.0469 Q209.7813,21.7188 210.3906,20.5781 Q211.0156,19.4219 212.1094,18.8125 Q213.2031,18.1875 214.4375,18.1875 Q215.1719,18.1875 215.8125,18.3594 Q216.4688,18.5156 217.0156,18.875 Z " fill="#000000"/><text fill="#000000" font-family="sans-serif" font-size="14" lengthAdjust="spacing" textLength="23" x="234.75" y="28.7969">Car</text><line style="stroke:#181818;stroke-width:0.5;" x1="133.5" x2="326.5" y1="39" y2="39"/><rect fill="none" height="6" style="stroke:#C82930;stroke-width:1.0;" width="6" x="140.5" y="50.8105"/><text fill="#000000" font-family="sans-serif" font-size="14" lengthAdjust="spacing" textLength="78" x="152.5" y="58.1074">String brand</text><rect fill="none" height="6" style="stroke:#C82930;stroke-width:1.0;" width="6" x="140.5" y="69.4316"/><text fill="#000000" font-family="sans-serif" font-size="14" lengthAdjust="spacing" textLength="72" x="152.5" y="76.7285">String color</text><rect fill="none" height="6" style="stroke:#C82930;stroke-width:1.0;" width="6" x="140.5" y="88.0527"/><text fill="#000000" font-family="sans-serif" font-size="14" lengthAdjust="spacing" textLength="133" x="152.5" y="95.3496">BodyTypes bodytype</text><rect fill="none" height="6" style="stroke:#C82930;stroke-width:1.0;" width="6" x="140.5" y="106.6738"/><text fill="#000000" font-family="sans-serif" font-size="14" lengthAdjust="spacing" textLength="121" x="152.5" y="113.9707">int fuelTankVolume</text><rect fill="none" height="6" style="stroke:#C82930;stroke-width:1.0;" width="6" x="140.5" y="125.2949"/><text fill="#000000" font-family="sans-serif" font-size="14" lengthAdjust="spacing" textLength="106" x="152.5" y="132.5918">double fuelValue</text><rect fill="none" height="6" style="stroke:#C82930;stroke-width:1.0;" width="6" x="140.5" y="143.916"/><text fill="#000000" font-family="sans-serif" font-size="14" lengthAdjust="spacing" textLength="101" x="152.5" y="151.2129">int seatsAmount</text><rect fill="none" height="6" style="stroke:#C82930;stroke-width:1.0;" width="6" x="140.5" y="162.5371"/><text fill="#000000" font-family="sans-serif" font-size="14" lengthAdjust="spacing" textLength="52" x="152.5" y="169.834">int mass</text><rect fill="none" height="6" style="stroke:#C82930;stroke-width:1.0;" width="6" x="140.5" y="181.1582"/><text fill="#000000" font-family="sans-serif" font-size="14" lengthAdjust="spacing" textLength="91" x="152.5" y="188.4551">Engine engine</text><rect fill="none" height="6" style="stroke:#C82930;stroke-width:1.0;" width="6" x="140.5" y="199.7793"/><text fill="#000000" font-family="sans-serif" font-size="14" lengthAdjust="spacing" textLength="95" x="152.5" y="207.0762">Wheel[] wheels</text><ellipse cx="143.5" cy="244.0215" fill="#84BE84" rx="3" ry="3" style="stroke:#038048;stroke-width:1.0;"/><text fill="#000000" font-family="sans-serif" font-size="14" lengthAdjust="spacing" textLength="109" x="152.5" y="248.3184">String getBrand()</text><ellipse cx="143.5" cy="262.6426" fill="#84BE84" rx="3" ry="3" style="stroke:#038048;stroke-width:1.0;"/><text fill="#000000" font-family="sans-serif" font-size="14" lengthAdjust="spacing" textLength="105" x="152.5" y="266.9395">String getColor()</text><ellipse cx="143.5" cy="281.2637" fill="#84BE84" rx="3" ry="3" style="stroke:#038048;stroke-width:1.0;"/><text fill="#000000" font-family="sans-serif" font-size="14" lengthAdjust="spacing" textLength="93" x="152.5" y="285.5605">void setColor()</text><ellipse cx="143.5" cy="299.8848" fill="#84BE84" rx="3" ry="3" style="stroke:#038048;stroke-width:1.0;"/><text fill="#000000" font-family="sans-serif" font-size="14" lengthAdjust="spacing" textLength="169" x="152.5" y="304.1816">BodyTypes getBodyType()</text><ellipse cx="143.5" cy="318.5059" fill="#84BE84" rx="3" ry="3" style="stroke:#038048;stroke-width:1.0;"/><text fill="#000000" font-family="sans-serif" font-size="14" lengthAdjust="spacing" textLength="156" x="152.5" y="322.8027">int getFuelTankVolume()</text><ellipse cx="143.5" cy="337.127" fill="#84BE84" rx="3" ry="3" style="stroke:#038048;stroke-width:1.0;"/><text fill="#000000" font-family="sans-serif" font-size="14" lengthAdjust="spacing" textLength="166" x="152.5" y="341.4238">void setFuelTankVolume()</text><ellipse cx="143.5" cy="355.748" fill="#84BE84" rx="3" ry="3" style="stroke:#038048;stroke-width:1.0;"/><text fill="#000000" font-family="sans-serif" font-size="14" lengthAdjust="spacing" textLength="141" x="152.5" y="360.0449">double getFuelValue()</text><ellipse cx="143.5" cy="374.3691" fill="#84BE84" rx="3" ry="3" style="stroke:#038048;stroke-width:1.0;"/><text fill="#000000" font-family="sans-serif" font-size="14" lengthAdjust="spacing" textLength="133" x="152.5" y="378.666">int getSeatsAmount()</text><ellipse cx="143.5" cy="392.9902" fill="#84BE84" rx="3" ry="3" style="stroke:#038048;stroke-width:1.0;"/><text fill="#000000" font-family="sans-serif" font-size="14" lengthAdjust="spacing" textLength="143" x="152.5" y="397.2871">void setSeatsAmount()</text><ellipse cx="143.5" cy="411.6113" fill="#84BE84" rx="3" ry="3" style="stroke:#038048;stroke-width:1.0;"/><text fill="#000000" font-family="sans-serif" font-size="14" lengthAdjust="spacing" textLength="82" x="152.5" y="415.9082">int getMass()</text><ellipse cx="143.5" cy="430.2324" fill="#84BE84" rx="3" ry="3" style="stroke:#038048;stroke-width:1.0;"/><text fill="#000000" font-family="sans-serif" font-size="14" lengthAdjust="spacing" textLength="92" x="152.5" y="434.5293">void setMass()</text><ellipse cx="143.5" cy="448.8535" fill="#84BE84" rx="3" ry="3" style="stroke:#038048;stroke-width:1.0;"/><text fill="#000000" font-family="sans-serif" font-size="14" lengthAdjust="spacing" textLength="122" x="152.5" y="453.1504">Engine getEngine()</text><ellipse cx="143.5" cy="467.4746" fill="#84BE84" rx="3" ry="3" style="stroke:#038048;stroke-width:1.0;"/><text fill="#000000" font-family="sans-serif" font-size="14" lengthAdjust="spacing" textLength="103" x="152.5" y="471.7715">void setEngine()</text><ellipse cx="143.5" cy="486.0957" fill="#84BE84" rx="3" ry="3" style="stroke:#038048;stroke-width:1.0;"/><text fill="#000000" font-family="sans-serif" font-size="14" lengthAdjust="spacing" textLength="129" x="152.5" y="490.3926">Wheel[] getWheels()</text><ellipse cx="143.5" cy="504.7168" fill="#84BE84" rx="3" ry="3" style="stroke:#038048;stroke-width:1.0;"/><text fill="#000000" font-family="sans-serif" font-size="14" lengthAdjust="spacing" textLength="106" x="152.5" y="509.0137">void setWheels()</text><ellipse cx="143.5" cy="523.3379" fill="#84BE84" rx="3" ry="3" style="stroke:#038048;stroke-width:1.0;"/><text fill="#000000" font-family="sans-serif" font-size="14" lengthAdjust="spacing" textLength="71" x="152.5" y="527.6348">void drive()</text><ellipse cx="143.5" cy="541.959" fill="#84BE84" rx="3" ry="3" style="stroke:#038048;stroke-width:1.0;"/><text fill="#000000" font-family="sans-serif" font-size="14" lengthAdjust="spacing" textLength="81" x="152.5" y="546.2559">void fillFuel()</text><ellipse cx="143.5" cy="560.5801" fill="#84BE84" rx="3" ry="3" style="stroke:#038048;stroke-width:1.0;"/><text fill="#000000" font-family="sans-serif" font-size="14" lengthAdjust="spacing" textLength="127" x="152.5" y="564.877">void changeWheel()</text><line style="stroke:#181818;stroke-width:1.0;" x1="133.5" x2="203" y1="223.9004" y2="223.9004"/><line style="stroke:#181818;stroke-width:1.0;" x1="133.5" x2="203" y1="225.9004" y2="225.9004"/><text fill="#000000" font-family="sans-serif" font-size="14" lengthAdjust="spacing" textLength="54" x="203" y="229.1973">Methods</text><line style="stroke:#181818;stroke-width:1.0;" x1="257" x2="326.5" y1="223.9004" y2="223.9004"/><line style="stroke:#181818;stroke-width:1.0;" x1="257" x2="326.5" y1="225.9004" y2="225.9004"/><line style="stroke:#181818;stroke-width:1.0;" x1="133.5" x2="326.5" y1="572.3906" y2="572.3906"/><ellipse cx="143.5" cy="587.2012" fill="#84BE84" rx="3" ry="3" style="stroke:#038048;stroke-width:1.0;"/><text fill="#000000" font-family="sans-serif" font-size="14" lengthAdjust="spacing" textLength="107" x="152.5" y="591.498">boolean equals()</text><ellipse cx="143.5" cy="605.8223" fill="#84BE84" rx="3" ry="3" style="stroke:#038048;stroke-width:1.0;"/><text fill="#000000" font-family="sans-serif" font-size="14" lengthAdjust="spacing" textLength="94" x="152.5" y="610.1191">int hashCode()</text><ellipse cx="143.5" cy="624.4434" fill="#84BE84" rx="3" ry="3" style="stroke:#038048;stroke-width:1.0;"/><text fill="#000000" font-family="sans-serif" font-size="14" lengthAdjust="spacing" textLength="100" x="152.5" y="628.7402">String toString()</text></g><!--class Engine--><g id="elem_Engine"><rect codeLine="63" fill="#F1F1F1" height="294.0742" id="Engine" rx="2.5" ry="2.5" style="stroke:#181818;stroke-width:0.5;" width="214" x="7" y="780"/><ellipse cx="87.75" cy="796" fill="#ADD1B2" rx="11" ry="11" style="stroke:#181818;stroke-width:1.0;"/><path d="M90.5156,791.875 Q90.6719,791.6563 90.8594,791.5469 Q91.0469,791.4375 91.2656,791.4375 Q91.6406,791.4375 91.875,791.7031 Q92.1094,791.9531 92.1094,792.5625 L92.1094,794.0156 Q92.1094,794.625 91.875,794.8906 Q91.6406,795.1563 91.2656,795.1563 Q90.9219,795.1563 90.7188,794.9531 Q90.5156,794.7656 90.4063,794.25 Q90.3594,793.8906 90.1719,793.7031 Q89.8438,793.3281 89.2344,793.1094 Q88.625,792.8906 88,792.8906 Q87.2344,792.8906 86.5938,793.2188 Q85.9688,793.5469 85.4688,794.2969 Q84.9844,795.0469 84.9844,796.0781 L84.9844,797.1719 Q84.9844,798.4063 85.875,799.2344 Q86.7656,800.0469 88.3594,800.0469 Q89.2969,800.0469 89.9531,799.7969 Q90.3438,799.6406 90.7656,799.2031 Q91.0313,798.9375 91.1719,798.8594 Q91.3281,798.7813 91.5313,798.7813 Q91.8594,798.7813 92.1094,799.0469 Q92.375,799.2969 92.375,799.6406 Q92.375,799.9844 92.0313,800.3906 Q91.5313,800.9688 90.7344,801.2969 Q89.6563,801.75 88.3594,801.75 Q86.8438,801.75 85.6406,801.125 Q84.6563,800.625 83.9688,799.5625 Q83.2813,798.4844 83.2813,797.2031 L83.2813,796.0469 Q83.2813,794.7188 83.8906,793.5781 Q84.5156,792.4219 85.6094,791.8125 Q86.7031,791.1875 87.9375,791.1875 Q88.6719,791.1875 89.3125,791.3594 Q89.9688,791.5156 90.5156,791.875 Z " fill="#000000"/><text fill="#000000" font-family="sans-serif" font-size="14" lengthAdjust="spacing" textLength="44" x="108.25" y="801.7969">Engine</text><line style="stroke:#181818;stroke-width:0.5;" x1="8" x2="220" y1="812" y2="812"/><rect fill="none" height="6" style="stroke:#C82930;stroke-width:1.0;" width="6" x="15" y="823.8105"/><text fill="#000000" font-family="sans-serif" font-size="14" lengthAdjust="spacing" textLength="92" x="27" y="831.1074">double volume</text><rect fill="none" height="6" style="stroke:#C82930;stroke-width:1.0;" width="6" x="15" y="842.4316"/><text fill="#000000" font-family="sans-serif" font-size="14" lengthAdjust="spacing" textLength="57" x="27" y="849.7285">int power</text><rect fill="none" height="6" style="stroke:#C82930;stroke-width:1.0;" width="6" x="15" y="861.0527"/><text fill="#000000" font-family="sans-serif" font-size="14" lengthAdjust="spacing" textLength="153" x="27" y="868.3496">double fuelConsumption</text><ellipse cx="18" cy="905.2949" fill="#84BE84" rx="3" ry="3" style="stroke:#038048;stroke-width:1.0;"/><text fill="#000000" font-family="sans-serif" font-size="14" lengthAdjust="spacing" textLength="124" x="27" y="909.5918">double getVolume()</text><ellipse cx="18" cy="923.916" fill="#84BE84" rx="3" ry="3" style="stroke:#038048;stroke-width:1.0;"/><text fill="#000000" font-family="sans-serif" font-size="14" lengthAdjust="spacing" textLength="106" x="27" y="928.2129">void setVolume()</text><ellipse cx="18" cy="942.5371" fill="#84BE84" rx="3" ry="3" style="stroke:#038048;stroke-width:1.0;"/><text fill="#000000" font-family="sans-serif" font-size="14" lengthAdjust="spacing" textLength="88" x="27" y="946.834">int getPower()</text><ellipse cx="18" cy="961.1582" fill="#84BE84" rx="3" ry="3" style="stroke:#038048;stroke-width:1.0;"/><text fill="#000000" font-family="sans-serif" font-size="14" lengthAdjust="spacing" textLength="98" x="27" y="965.4551">void setPower()</text><ellipse cx="18" cy="979.7793" fill="#84BE84" rx="3" ry="3" style="stroke:#038048;stroke-width:1.0;"/><text fill="#000000" font-family="sans-serif" font-size="14" lengthAdjust="spacing" textLength="188" x="27" y="984.0762">double getFuelConsumption()</text><ellipse cx="18" cy="998.4004" fill="#84BE84" rx="3" ry="3" style="stroke:#038048;stroke-width:1.0;"/><text fill="#000000" font-family="sans-serif" font-size="14" lengthAdjust="spacing" textLength="170" x="27" y="1002.6973">void setFuelConsumption()</text><line style="stroke:#181818;stroke-width:1.0;" x1="8" x2="87" y1="885.1738" y2="885.1738"/><line style="stroke:#181818;stroke-width:1.0;" x1="8" x2="87" y1="887.1738" y2="887.1738"/><text fill="#000000" font-family="sans-serif" font-size="14" lengthAdjust="spacing" textLength="54" x="87" y="890.4707">Methods</text><line style="stroke:#181818;stroke-width:1.0;" x1="141" x2="220" y1="885.1738" y2="885.1738"/><line style="stroke:#181818;stroke-width:1.0;" x1="141" x2="220" y1="887.1738" y2="887.1738"/><line style="stroke:#181818;stroke-width:1.0;" x1="8" x2="220" y1="1010.2109" y2="1010.2109"/><ellipse cx="18" cy="1025.0215" fill="#84BE84" rx="3" ry="3" style="stroke:#038048;stroke-width:1.0;"/><text fill="#000000" font-family="sans-serif" font-size="14" lengthAdjust="spacing" textLength="107" x="27" y="1029.3184">boolean equals()</text><ellipse cx="18" cy="1043.6426" fill="#84BE84" rx="3" ry="3" style="stroke:#038048;stroke-width:1.0;"/><text fill="#000000" font-family="sans-serif" font-size="14" lengthAdjust="spacing" textLength="94" x="27" y="1047.9395">int hashCode()</text><ellipse cx="18" cy="1062.2637" fill="#84BE84" rx="3" ry="3" style="stroke:#038048;stroke-width:1.0;"/><text fill="#000000" font-family="sans-serif" font-size="14" lengthAdjust="spacing" textLength="100" x="27" y="1066.5605">String toString()</text></g><!--class Wheel--><g id="elem_Wheel"><rect codeLine="80" fill="#F1F1F1" height="461.6641" id="Wheel" rx="2.5" ry="2.5" style="stroke:#181818;stroke-width:0.5;" width="181" x="256.5" y="696"/><ellipse cx="322.75" cy="712" fill="#ADD1B2" rx="11" ry="11" style="stroke:#181818;stroke-width:1.0;"/><path d="M325.5156,707.875 Q325.6719,707.6563 325.8594,707.5469 Q326.0469,707.4375 326.2656,707.4375 Q326.6406,707.4375 326.875,707.7031 Q327.1094,707.9531 327.1094,708.5625 L327.1094,710.0156 Q327.1094,710.625 326.875,710.8906 Q326.6406,711.1563 326.2656,711.1563 Q325.9219,711.1563 325.7188,710.9531 Q325.5156,710.7656 325.4063,710.25 Q325.3594,709.8906 325.1719,709.7031 Q324.8438,709.3281 324.2344,709.1094 Q323.625,708.8906 323,708.8906 Q322.2344,708.8906 321.5938,709.2188 Q320.9688,709.5469 320.4688,710.2969 Q319.9844,711.0469 319.9844,712.0781 L319.9844,713.1719 Q319.9844,714.4063 320.875,715.2344 Q321.7656,716.0469 323.3594,716.0469 Q324.2969,716.0469 324.9531,715.7969 Q325.3438,715.6406 325.7656,715.2031 Q326.0313,714.9375 326.1719,714.8594 Q326.3281,714.7813 326.5313,714.7813 Q326.8594,714.7813 327.1094,715.0469 Q327.375,715.2969 327.375,715.6406 Q327.375,715.9844 327.0313,716.3906 Q326.5313,716.9688 325.7344,717.2969 Q324.6563,717.75 323.3594,717.75 Q321.8438,717.75 320.6406,717.125 Q319.6563,716.625 318.9688,715.5625 Q318.2813,714.4844 318.2813,713.2031 L318.2813,712.0469 Q318.2813,710.7188 318.8906,709.5781 Q319.5156,708.4219 320.6094,707.8125 Q321.7031,707.1875 322.9375,707.1875 Q323.6719,707.1875 324.3125,707.3594 Q324.9688,707.5156 325.5156,707.875 Z " fill="#000000"/><text fill="#000000" font-family="sans-serif" font-size="14" lengthAdjust="spacing" textLength="40" x="343.25" y="717.7969">Wheel</text><line style="stroke:#181818;stroke-width:0.5;" x1="257.5" x2="436.5" y1="728" y2="728"/><rect fill="none" height="6" style="stroke:#C82930;stroke-width:1.0;" width="6" x="264.5" y="739.8105"/><text fill="#000000" font-family="sans-serif" font-size="14" lengthAdjust="spacing" textLength="125" x="276.5" y="747.1074">String manufacturer</text><rect fill="none" height="6" style="stroke:#C82930;stroke-width:1.0;" width="6" x="264.5" y="758.4316"/><text fill="#000000" font-family="sans-serif" font-size="14" lengthAdjust="spacing" textLength="112" x="276.5" y="765.7285">String seasonality</text><rect fill="none" height="6" style="stroke:#C82930;stroke-width:1.0;" width="6" x="264.5" y="777.0527"/><text fill="#000000" font-family="sans-serif" font-size="14" lengthAdjust="spacing" textLength="51" x="276.5" y="784.3496">int width</text><rect fill="none" height="6" style="stroke:#C82930;stroke-width:1.0;" width="6" x="264.5" y="795.6738"/><text fill="#000000" font-family="sans-serif" font-size="14" lengthAdjust="spacing" textLength="58" x="276.5" y="802.9707">int profile</text><rect fill="none" height="6" style="stroke:#C82930;stroke-width:1.0;" width="6" x="264.5" y="814.2949"/><text fill="#000000" font-family="sans-serif" font-size="14" lengthAdjust="spacing" textLength="58" x="276.5" y="821.5918">int radius</text><rect fill="none" height="6" style="stroke:#C82930;stroke-width:1.0;" width="6" x="264.5" y="832.916"/><text fill="#000000" font-family="sans-serif" font-size="14" lengthAdjust="spacing" textLength="95" x="276.5" y="840.2129">boolean spikes</text><ellipse cx="267.5" cy="877.1582" fill="#84BE84" rx="3" ry="3" style="stroke:#038048;stroke-width:1.0;"/><text fill="#000000" font-family="sans-serif" font-size="14" lengthAdjust="spacing" textLength="155" x="276.5" y="881.4551">String getManufacturer()</text><ellipse cx="267.5" cy="895.7793" fill="#84BE84" rx="3" ry="3" style="stroke:#038048;stroke-width:1.0;"/><text fill="#000000" font-family="sans-serif" font-size="14" lengthAdjust="spacing" textLength="143" x="276.5" y="900.0762">void setManufacturer()</text><ellipse cx="267.5" cy="914.4004" fill="#84BE84" rx="3" ry="3" style="stroke:#038048;stroke-width:1.0;"/><text fill="#000000" font-family="sans-serif" font-size="14" lengthAdjust="spacing" textLength="144" x="276.5" y="918.6973">String getSeasonality()</text><ellipse cx="267.5" cy="933.0215" fill="#84BE84" rx="3" ry="3" style="stroke:#038048;stroke-width:1.0;"/><text fill="#000000" font-family="sans-serif" font-size="14" lengthAdjust="spacing" textLength="132" x="276.5" y="937.3184">void setSeasonality()</text><ellipse cx="267.5" cy="951.6426" fill="#84BE84" rx="3" ry="3" style="stroke:#038048;stroke-width:1.0;"/><text fill="#000000" font-family="sans-serif" font-size="14" lengthAdjust="spacing" textLength="93" x="276.5" y="955.9395">int geteWidth()</text><ellipse cx="267.5" cy="970.2637" fill="#84BE84" rx="3" ry="3" style="stroke:#038048;stroke-width:1.0;"/><text fill="#000000" font-family="sans-serif" font-size="14" lengthAdjust="spacing" textLength="95" x="276.5" y="974.5605">void setWidth()</text><ellipse cx="267.5" cy="988.8848" fill="#84BE84" rx="3" ry="3" style="stroke:#038048;stroke-width:1.0;"/><text fill="#000000" font-family="sans-serif" font-size="14" lengthAdjust="spacing" textLength="89" x="276.5" y="993.1816">int getProfile()</text><ellipse cx="267.5" cy="1007.5059" fill="#84BE84" rx="3" ry="3" style="stroke:#038048;stroke-width:1.0;"/><text fill="#000000" font-family="sans-serif" font-size="14" lengthAdjust="spacing" textLength="99" x="276.5" y="1011.8027">void setProfile()</text><ellipse cx="267.5" cy="1026.127" fill="#84BE84" rx="3" ry="3" style="stroke:#038048;stroke-width:1.0;"/><text fill="#000000" font-family="sans-serif" font-size="14" lengthAdjust="spacing" textLength="93" x="276.5" y="1030.4238">int getRadius()</text><ellipse cx="267.5" cy="1044.748" fill="#84BE84" rx="3" ry="3" style="stroke:#038048;stroke-width:1.0;"/><text fill="#000000" font-family="sans-serif" font-size="14" lengthAdjust="spacing" textLength="103" x="276.5" y="1049.0449">void setRadius()</text><ellipse cx="267.5" cy="1063.3691" fill="#84BE84" rx="3" ry="3" style="stroke:#038048;stroke-width:1.0;"/><text fill="#000000" font-family="sans-serif" font-size="14" lengthAdjust="spacing" textLength="130" x="276.5" y="1067.666">boolean hasSpikes()</text><ellipse cx="267.5" cy="1081.9902" fill="#84BE84" rx="3" ry="3" style="stroke:#038048;stroke-width:1.0;"/><text fill="#000000" font-family="sans-serif" font-size="14" lengthAdjust="spacing" textLength="101" x="276.5" y="1086.2871">void setSpikes()</text><line style="stroke:#181818;stroke-width:1.0;" x1="257.5" x2="320" y1="857.0371" y2="857.0371"/><line style="stroke:#181818;stroke-width:1.0;" x1="257.5" x2="320" y1="859.0371" y2="859.0371"/><text fill="#000000" font-family="sans-serif" font-size="14" lengthAdjust="spacing" textLength="54" x="320" y="862.334">Methods</text><line style="stroke:#181818;stroke-width:1.0;" x1="374" x2="436.5" y1="857.0371" y2="857.0371"/><line style="stroke:#181818;stroke-width:1.0;" x1="374" x2="436.5" y1="859.0371" y2="859.0371"/><line style="stroke:#181818;stroke-width:1.0;" x1="257.5" x2="436.5" y1="1093.8008" y2="1093.8008"/><ellipse cx="267.5" cy="1108.6113" fill="#84BE84" rx="3" ry="3" style="stroke:#038048;stroke-width:1.0;"/><text fill="#000000" font-family="sans-serif" font-size="14" lengthAdjust="spacing" textLength="107" x="276.5" y="1112.9082">boolean equals()</text><ellipse cx="267.5" cy="1127.2324" fill="#84BE84" rx="3" ry="3" style="stroke:#038048;stroke-width:1.0;"/><text fill="#000000" font-family="sans-serif" font-size="14" lengthAdjust="spacing" textLength="94" x="276.5" y="1131.5293">int hashCode()</text><ellipse cx="267.5" cy="1145.8535" fill="#84BE84" rx="3" ry="3" style="stroke:#038048;stroke-width:1.0;"/><text fill="#000000" font-family="sans-serif" font-size="14" lengthAdjust="spacing" textLength="100" x="276.5" y="1150.1504">String toString()</text></g><!--class TaskMain--><g id="elem_TaskMain"><rect codeLine="106" fill="#F1F1F1" height="85.2422" id="TaskMain" rx="2.5" ry="2.5" style="stroke:#181818;stroke-width:0.5;" width="141" x="362.5" y="279"/><ellipse cx="399.1" cy="295" fill="#ADD1B2" rx="11" ry="11" style="stroke:#181818;stroke-width:1.0;"/><path d="M401.8656,290.875 Q402.0219,290.6563 402.2094,290.5469 Q402.3969,290.4375 402.6156,290.4375 Q402.9906,290.4375 403.225,290.7031 Q403.4594,290.9531 403.4594,291.5625 L403.4594,293.0156 Q403.4594,293.625 403.225,293.8906 Q402.9906,294.1563 402.6156,294.1563 Q402.2719,294.1563 402.0688,293.9531 Q401.8656,293.7656 401.7563,293.25 Q401.7094,292.8906 401.5219,292.7031 Q401.1938,292.3281 400.5844,292.1094 Q399.975,291.8906 399.35,291.8906 Q398.5844,291.8906 397.9438,292.2188 Q397.3188,292.5469 396.8188,293.2969 Q396.3344,294.0469 396.3344,295.0781 L396.3344,296.1719 Q396.3344,297.4063 397.225,298.2344 Q398.1156,299.0469 399.7094,299.0469 Q400.6469,299.0469 401.3031,298.7969 Q401.6938,298.6406 402.1156,298.2031 Q402.3813,297.9375 402.5219,297.8594 Q402.6781,297.7813 402.8813,297.7813 Q403.2094,297.7813 403.4594,298.0469 Q403.725,298.2969 403.725,298.6406 Q403.725,298.9844 403.3813,299.3906 Q402.8813,299.9688 402.0844,300.2969 Q401.0063,300.75 399.7094,300.75 Q398.1938,300.75 396.9906,300.125 Q396.0063,299.625 395.3188,298.5625 Q394.6313,297.4844 394.6313,296.2031 L394.6313,295.0469 Q394.6313,293.7188 395.2406,292.5781 Q395.8656,291.4219 396.9594,290.8125 Q398.0531,290.1875 399.2875,290.1875 Q400.0219,290.1875 400.6625,290.3594 Q401.3188,290.5156 401.8656,290.875 Z " fill="#000000"/><text fill="#000000" font-family="sans-serif" font-size="14" lengthAdjust="spacing" textLength="61" x="417.9" y="300.7969">TaskMain</text><line style="stroke:#181818;stroke-width:0.5;" x1="363.5" x2="502.5" y1="311" y2="311"/><line style="stroke:#181818;stroke-width:0.5;" x1="363.5" x2="502.5" y1="319" y2="319"/><ellipse cx="373.5" cy="333.8105" fill="#84BE84" rx="3" ry="3" style="stroke:#038048;stroke-width:1.0;"/><text fill="#000000" font-family="sans-serif" font-size="14" lengthAdjust="spacing" text-decoration="underline" textLength="70" x="382.5" y="338.1074">void main()</text><rect fill="#F24D5C" height="6" style="stroke:#C82930;stroke-width:1.0;" width="6" x="370.5" y="349.4316"/><text fill="#000000" font-family="sans-serif" font-size="14" lengthAdjust="spacing" text-decoration="underline" textLength="115" x="382.5" y="356.7285">void printWheels()</text></g><!--reverse link Car to Engine--><g id="link_Car_Engine"><path codeLine="111" d="M167.4438,647.9641 C157.7938,698.1441 150.5,736.09 142.1,779.82 " fill="none" id="Car-backto-Engine" style="stroke:#181818;stroke-width:1.0;"/><polygon fill="#181818" points="169.71,636.18,164.6489,641.3166,167.4438,647.9641,172.5049,642.8274,169.71,636.18" style="stroke:#181818;stroke-width:1.0;"/></g><!--reverse link Car to Wheel--><g id="link_Car_Wheel"><path codeLine="112" d="M293.0934,647.9608 C296.9834,668.0308 298.58,676.25 302.38,695.82 " fill="none" id="Car-backto-Wheel" style="stroke:#181818;stroke-width:1.0;"/><polygon fill="#181818" points="290.81,636.18,288.0248,642.8315,293.0934,647.9608,295.8786,641.3093,290.81,636.18" style="stroke:#181818;stroke-width:1.0;"/></g><!--SRC=[hLLDZwCW6BxtLv3iPMSd_GbpiDRDcAbjuqTxsEo1Agsa2evWcwQP_xvWKL1iieVX8ZpFoyFx1LOmFSCJ0eWq9GC_bkq0znaGGs9WGRDRVAiGKw0SWU-6ctuLUKjdtQ_SPASPO_xknExxmd4_jEKcsNg6vjhVcJhE8lJr8U76MKQn5nhQMozq7GriVVSZsVPBKslb1viayjUUeHw8xQPD72RAjw-PZZv2a5422ypn80DH4WI6Ctj_RVeM9AlOZpmdsgoTbT8Kgca16GCkh9NG74IynkG43ZKasH1AQK5h1UaI7CICYvaYCE7WsA0YXkIyeqLJTaH6cqE1Mcu7YyQqPmXovfIq8Tn0I-6PMdhaX8bi2FbHs3v7gFZp5rpbzs7uzWO2n7EQCJ5jaTVEznFY2ndHpnSBTsLOFNwXE1CEZL0ThXHIYvwLtWhyzo1iI_49hVAYzhUf6Gj7EZ-MwXIdjWKYWPRz05Hv5RQFcMKzWhkSYmtjr9QVWhCQNqRIHrmKCjmXckQGd50heOZvNF47IWi42K2V3JJqPQGvPBbBCpGkBQUFYS3xHbS1tuSzUJ7xL4fMz8fgkszTIbXJLXnJyhJVT3cVjC48LhNQoXCjso4wx1J3cSbMi_dlJcPRgF6xKKBI767AcxhFe69O_sxTZ5HVSSPpC_Kr5SrX5gE66Mwwbw1pdLNuZFxdrWU6FnENOOBKU_LBUvkwTnQdQedsCYRxQWpGhkwFSEtAZt1b7hQviAn7S9SaKSoepPFjlGb_Tr_4a9q3Y8bgZLTmPnnod7uzZYy5rPqyeYeXfPyG8IX_JB_ctG-WNxOcity0]--></g></svg>