<?xml version="1.0" encoding="us-ascii" standalone="no"?><svg xmlns="http://www.w3.org/2000/svg" xmlns:xlink="http://www.w3.org/1999/xlink" contentStyleType="text/css" height="1317px" preserveAspectRatio="none" style="width:2191px;height:1317px;background:#FFFFFF;" version="1.1" viewBox="0 0 2191 1317" width="2191px" zoomAndPan="magnify"><defs/><g><!--cluster flowers--><g id="cluster_flowers"><path d="M8.5,361 L61.5,361 A3.75,3.75 0 0 1 64,363.5 L71,385.6211 L1473.5,385.6211 A2.5,2.5 0 0 1 1476,388.1211 L1476,1307.5 A2.5,2.5 0 0 1 1473.5,1310 L8.5,1310 A2.5,2.5 0 0 1 6,1307.5 L6,363.5 A2.5,2.5 0 0 1 8.5,361 " fill="#DDDDDD" style="stroke:#000000;stroke-width:1.5;"/><line style="stroke:#000000;stroke-width:1.5;" x1="6" x2="71" y1="385.6211" y2="385.6211"/><text fill="#000000" font-family="sans-serif" font-size="14" font-weight="bold" lengthAdjust="spacing" textLength="52" x="10" y="378.1074">flowers</text></g><!--cluster dried--><g id="cluster_dried"><path d="M32.5,810.5 L70.5,810.5 A3.75,3.75 0 0 1 73,813 L80,835.1211 L377.5,835.1211 A2.5,2.5 0 0 1 380,837.6211 L380,1265 A2.5,2.5 0 0 1 377.5,1267.5 L32.5,1267.5 A2.5,2.5 0 0 1 30,1265 L30,813 A2.5,2.5 0 0 1 32.5,810.5 " fill="#DDDDDD" style="stroke:#000000;stroke-width:1.5;"/><line style="stroke:#000000;stroke-width:1.5;" x1="30" x2="80" y1="835.1211" y2="835.1211"/><text fill="#000000" font-family="sans-serif" font-size="14" font-weight="bold" lengthAdjust="spacing" textLength="37" x="34" y="827.6074">dried</text></g><!--cluster bush--><g id="cluster_bush"><path d="M406.5,743.5 L442.5,743.5 A3.75,3.75 0 0 1 445,746 L452,768.1211 L800.5,768.1211 A2.5,2.5 0 0 1 803,770.6211 L803,1283.5 A2.5,2.5 0 0 1 800.5,1286 L406.5,1286 A2.5,2.5 0 0 1 404,1283.5 L404,746 A2.5,2.5 0 0 1 406.5,743.5 " fill="#DDDDDD" style="stroke:#000000;stroke-width:1.5;"/><line style="stroke:#000000;stroke-width:1.5;" x1="404" x2="452" y1="768.1211" y2="768.1211"/><text fill="#000000" font-family="sans-serif" font-size="14" font-weight="bold" lengthAdjust="spacing" textLength="35" x="408" y="760.6074">bush</text></g><!--cluster meadow--><g id="cluster_meadow"><path d="M829.5,752.5 L888.5,752.5 A3.75,3.75 0 0 1 891,755 L898,777.1211 L1040.5,777.1211 A2.5,2.5 0 0 1 1043,779.6211 L1043,1223.5 A2.5,2.5 0 0 1 1040.5,1226 L829.5,1226 A2.5,2.5 0 0 1 827,1223.5 L827,755 A2.5,2.5 0 0 1 829.5,752.5 " fill="#DDDDDD" style="stroke:#000000;stroke-width:1.5;"/><line style="stroke:#000000;stroke-width:1.5;" x1="827" x2="898" y1="777.1211" y2="777.1211"/><text fill="#000000" font-family="sans-serif" font-size="14" font-weight="bold" lengthAdjust="spacing" textLength="58" x="831" y="769.6074">meadow</text></g><!--cluster bulbous--><g id="cluster_bulbous"><path d="M1069.5,752.5 L1127.5,752.5 A3.75,3.75 0 0 1 1130,755 L1137,777.1211 L1449.5,777.1211 A2.5,2.5 0 0 1 1452,779.6211 L1452,1246.5 A2.5,2.5 0 0 1 1449.5,1249 L1069.5,1249 A2.5,2.5 0 0 1 1067,1246.5 L1067,755 A2.5,2.5 0 0 1 1069.5,752.5 " fill="#DDDDDD" style="stroke:#000000;stroke-width:1.5;"/><line style="stroke:#000000;stroke-width:1.5;" x1="1067" x2="1137" y1="777.1211" y2="777.1211"/><text fill="#000000" font-family="sans-serif" font-size="14" font-weight="bold" lengthAdjust="spacing" textLength="57" x="1071" y="769.6074">bulbous</text></g><!--cluster accessories--><g id="cluster_accessories"><path d="M1502.5,398.5 L1588.5,398.5 A3.75,3.75 0 0 1 1591,401 L1598,423.1211 L2181.5,423.1211 A2.5,2.5 0 0 1 2184,425.6211 L2184,985.5 A2.5,2.5 0 0 1 2181.5,988 L1502.5,988 A2.5,2.5 0 0 1 1500,985.5 L1500,401 A2.5,2.5 0 0 1 1502.5,398.5 " fill="#DDDDDD" style="stroke:#000000;stroke-width:1.5;"/><line style="stroke:#000000;stroke-width:1.5;" x1="1500" x2="1598" y1="423.1211" y2="423.1211"/><text fill="#000000" font-family="sans-serif" font-size="14" font-weight="bold" lengthAdjust="spacing" textLength="85" x="1504" y="415.6074">accessories</text></g><!--cluster enums--><g id="cluster_enums"><path d="M1966.5,83.5 L2014.5,83.5 A3.75,3.75 0 0 1 2017,86 L2024,108.1211 L2083.5,108.1211 A2.5,2.5 0 0 1 2086,110.6211 L2086,238 A2.5,2.5 0 0 1 2083.5,240.5 L1966.5,240.5 A2.5,2.5 0 0 1 1964,238 L1964,86 A2.5,2.5 0 0 1 1966.5,83.5 " fill="#DDDDDD" style="stroke:#000000;stroke-width:1.5;"/><line style="stroke:#000000;stroke-width:1.5;" x1="1964" x2="2024" y1="108.1211" y2="108.1211"/><text fill="#000000" font-family="sans-serif" font-size="14" font-weight="bold" lengthAdjust="spacing" textLength="47" x="1968" y="100.6074">enums</text></g><!--class Flower--><g id="elem_Flower"><rect codeLine="3" fill="#F1F1F1" height="312.6953" id="Flower" rx="2.5" ry="2.5" style="stroke:#181818;stroke-width:0.5;" width="186" x="842" y="398"/><ellipse cx="909.75" cy="414" fill="#A9DCDF" rx="11" ry="11" style="stroke:#181818;stroke-width:1.0;"/><path d="M911.9375,415.7656 L907.7969,415.7656 L907.375,416.7969 L907.7969,416.7969 Q908.4063,416.7969 908.6719,417.0313 Q908.9375,417.2656 908.9375,417.6563 Q908.9375,418.0313 908.6719,418.2656 Q908.4063,418.5 907.7969,418.5 L905.5,418.5 Q904.8906,418.5 904.6406,418.2656 Q904.375,418.0313 904.375,417.6406 Q904.375,417.2656 904.6563,417.0313 Q904.9219,416.7813 905.5469,416.7969 L908.2188,410.1406 L907.1094,410.1406 Q906.5,410.1406 906.2344,409.9063 Q905.9688,409.6719 905.9688,409.2813 Q905.9688,408.9063 906.2344,408.6719 Q906.5,408.4375 907.1094,408.4375 L910.7813,408.4375 L914.1719,416.7969 Q914.7656,416.7969 914.9531,416.9375 Q915.3438,417.2031 915.3438,417.6563 Q915.3438,418.0313 915.0781,418.2656 Q914.8281,418.5 914.2188,418.5 L911.9219,418.5 Q911.3125,418.5 911.0469,418.2656 Q910.7813,418.0313 910.7813,417.6406 Q910.7813,417.2656 911.0469,417.0313 Q911.3125,416.7969 911.9219,416.7969 L912.3438,416.7969 L911.9375,415.7656 Z M911.2188,414.0625 L909.8594,410.6875 L908.4844,414.0625 L911.2188,414.0625 Z " fill="#000000"/><text fill="#000000" font-family="sans-serif" font-size="14" font-style="italic" lengthAdjust="spacing" textLength="42" x="930.25" y="419.7969">Flower</text><line style="stroke:#181818;stroke-width:0.5;" x1="843" x2="1027" y1="430" y2="430"/><polygon fill="none" points="853,439.8105,857,443.8105,853,447.8105,849,443.8105" style="stroke:#B38D22;stroke-width:1.0;"/><text fill="#000000" font-family="sans-serif" font-size="14" lengthAdjust="spacing" textLength="72" x="862" y="449.1074">String color</text><polygon fill="none" points="853,458.4316,857,462.4316,853,466.4316,849,462.4316" style="stroke:#B38D22;stroke-width:1.0;"/><text fill="#000000" font-family="sans-serif" font-size="14" lengthAdjust="spacing" textLength="81" x="862" y="467.7285">int freshness</text><polygon fill="none" points="853,477.0527,857,481.0527,853,485.0527,849,481.0527" style="stroke:#B38D22;stroke-width:1.0;"/><text fill="#000000" font-family="sans-serif" font-size="14" lengthAdjust="spacing" textLength="121" x="862" y="486.3496">double stemLength</text><polygon fill="none" points="853,495.6738,857,499.6738,853,503.6738,849,499.6738" style="stroke:#B38D22;stroke-width:1.0;"/><text fill="#000000" font-family="sans-serif" font-size="14" lengthAdjust="spacing" textLength="50" x="862" y="504.9707">int price</text><ellipse cx="853" cy="541.916" fill="#84BE84" rx="3" ry="3" style="stroke:#038048;stroke-width:1.0;"/><text fill="#000000" font-family="sans-serif" font-size="14" lengthAdjust="spacing" textLength="105" x="862" y="546.2129">String getColor()</text><ellipse cx="853" cy="560.5371" fill="#84BE84" rx="3" ry="3" style="stroke:#038048;stroke-width:1.0;"/><text fill="#000000" font-family="sans-serif" font-size="14" lengthAdjust="spacing" textLength="116" x="862" y="564.834">int getFreshness()</text><ellipse cx="853" cy="579.1582" fill="#84BE84" rx="3" ry="3" style="stroke:#038048;stroke-width:1.0;"/><text fill="#000000" font-family="sans-serif" font-size="14" lengthAdjust="spacing" textLength="153" x="862" y="583.4551">double getStemLength()</text><ellipse cx="853" cy="597.7793" fill="#84BE84" rx="3" ry="3" style="stroke:#038048;stroke-width:1.0;"/><text fill="#000000" font-family="sans-serif" font-size="14" lengthAdjust="spacing" textLength="81" x="862" y="602.0762">int getPrice()</text><ellipse cx="853" cy="616.4004" fill="#84BE84" rx="3" ry="3" style="stroke:#038048;stroke-width:1.0;"/><text fill="#000000" font-family="sans-serif" font-size="14" lengthAdjust="spacing" textLength="160" x="862" y="620.6973">boolean isInStemRange()</text><ellipse cx="853" cy="635.0215" fill="#84BE84" rx="3" ry="3" style="stroke:#038048;stroke-width:1.0;"/><text fill="#000000" font-family="sans-serif" font-size="14" lengthAdjust="spacing" textLength="107" x="862" y="639.3184">String getName()</text><line style="stroke:#181818;stroke-width:1.0;" x1="843" x2="908" y1="521.7949" y2="521.7949"/><line style="stroke:#181818;stroke-width:1.0;" x1="843" x2="908" y1="523.7949" y2="523.7949"/><text fill="#000000" font-family="sans-serif" font-size="14" lengthAdjust="spacing" textLength="54" x="908" y="527.0918">Methods</text><line style="stroke:#181818;stroke-width:1.0;" x1="962" x2="1027" y1="521.7949" y2="521.7949"/><line style="stroke:#181818;stroke-width:1.0;" x1="962" x2="1027" y1="523.7949" y2="523.7949"/><line style="stroke:#181818;stroke-width:1.0;" x1="843" x2="1027" y1="646.832" y2="646.832"/><ellipse cx="853" cy="661.6426" fill="#84BE84" rx="3" ry="3" style="stroke:#038048;stroke-width:1.0;"/><text fill="#000000" font-family="sans-serif" font-size="14" lengthAdjust="spacing" textLength="107" x="862" y="665.9395">boolean equals()</text><ellipse cx="853" cy="680.2637" fill="#84BE84" rx="3" ry="3" style="stroke:#038048;stroke-width:1.0;"/><text fill="#000000" font-family="sans-serif" font-size="14" lengthAdjust="spacing" textLength="94" x="862" y="684.5605">int hashCode()</text><ellipse cx="853" cy="698.8848" fill="#84BE84" rx="3" ry="3" style="stroke:#038048;stroke-width:1.0;"/><text fill="#000000" font-family="sans-serif" font-size="14" lengthAdjust="spacing" textLength="100" x="862" y="703.1816">String toString()</text></g><!--class DriedFlower--><g id="elem_DriedFlower"><rect codeLine="23" fill="#F1F1F1" height="48" id="DriedFlower" rx="2.5" ry="2.5" style="stroke:#181818;stroke-width:0.5;" width="108" x="242" y="847.5"/><ellipse cx="257" cy="863.5" fill="#ADD1B2" rx="11" ry="11" style="stroke:#181818;stroke-width:1.0;"/><path d="M259.7656,859.375 Q259.9219,859.1563 260.1094,859.0469 Q260.2969,858.9375 260.5156,858.9375 Q260.8906,858.9375 261.125,859.2031 Q261.3594,859.4531 261.3594,860.0625 L261.3594,861.5156 Q261.3594,862.125 261.125,862.3906 Q260.8906,862.6563 260.5156,862.6563 Q260.1719,862.6563 259.9688,862.4531 Q259.7656,862.2656 259.6563,861.75 Q259.6094,861.3906 259.4219,861.2031 Q259.0938,860.8281 258.4844,860.6094 Q257.875,860.3906 257.25,860.3906 Q256.4844,860.3906 255.8438,860.7188 Q255.2188,861.0469 254.7188,861.7969 Q254.2344,862.5469 254.2344,863.5781 L254.2344,864.6719 Q254.2344,865.9063 255.125,866.7344 Q256.0156,867.5469 257.6094,867.5469 Q258.5469,867.5469 259.2031,867.2969 Q259.5938,867.1406 260.0156,866.7031 Q260.2813,866.4375 260.4219,866.3594 Q260.5781,866.2813 260.7813,866.2813 Q261.1094,866.2813 261.3594,866.5469 Q261.625,866.7969 261.625,867.1406 Q261.625,867.4844 261.2813,867.8906 Q260.7813,868.4688 259.9844,868.7969 Q258.9063,869.25 257.6094,869.25 Q256.0938,869.25 254.8906,868.625 Q253.9063,868.125 253.2188,867.0625 Q252.5313,865.9844 252.5313,864.7031 L252.5313,863.5469 Q252.5313,862.2188 253.1406,861.0781 Q253.7656,859.9219 254.8594,859.3125 Q255.9531,858.6875 257.1875,858.6875 Q257.9219,858.6875 258.5625,858.8594 Q259.2188,859.0156 259.7656,859.375 Z " fill="#000000"/><text fill="#000000" font-family="sans-serif" font-size="14" lengthAdjust="spacing" textLength="76" x="271" y="869.2969">DriedFlower</text><line style="stroke:#181818;stroke-width:0.5;" x1="243" x2="349" y1="879.5" y2="879.5"/><line style="stroke:#181818;stroke-width:0.5;" x1="243" x2="349" y1="887.5" y2="887.5"/></g><!--class Echinops--><g id="elem_Echinops"><rect codeLine="25" fill="#F1F1F1" height="200.9688" id="Echinops" rx="2.5" ry="2.5" style="stroke:#181818;stroke-width:0.5;" width="147" x="46.5" y="1050.5"/><ellipse cx="87.15" cy="1066.5" fill="#ADD1B2" rx="11" ry="11" style="stroke:#181818;stroke-width:1.0;"/><path d="M89.9156,1062.375 Q90.0719,1062.1563 90.2594,1062.0469 Q90.4469,1061.9375 90.6656,1061.9375 Q91.0406,1061.9375 91.275,1062.2031 Q91.5094,1062.4531 91.5094,1063.0625 L91.5094,1064.5156 Q91.5094,1065.125 91.275,1065.3906 Q91.0406,1065.6563 90.6656,1065.6563 Q90.3219,1065.6563 90.1188,1065.4531 Q89.9156,1065.2656 89.8063,1064.75 Q89.7594,1064.3906 89.5719,1064.2031 Q89.2438,1063.8281 88.6344,1063.6094 Q88.025,1063.3906 87.4,1063.3906 Q86.6344,1063.3906 85.9938,1063.7188 Q85.3688,1064.0469 84.8688,1064.7969 Q84.3844,1065.5469 84.3844,1066.5781 L84.3844,1067.6719 Q84.3844,1068.9063 85.275,1069.7344 Q86.1656,1070.5469 87.7594,1070.5469 Q88.6969,1070.5469 89.3531,1070.2969 Q89.7438,1070.1406 90.1656,1069.7031 Q90.4313,1069.4375 90.5719,1069.3594 Q90.7281,1069.2813 90.9313,1069.2813 Q91.2594,1069.2813 91.5094,1069.5469 Q91.775,1069.7969 91.775,1070.1406 Q91.775,1070.4844 91.4313,1070.8906 Q90.9313,1071.4688 90.1344,1071.7969 Q89.0563,1072.25 87.7594,1072.25 Q86.2438,1072.25 85.0406,1071.625 Q84.0563,1071.125 83.3688,1070.0625 Q82.6813,1068.9844 82.6813,1067.7031 L82.6813,1066.5469 Q82.6813,1065.2188 83.2906,1064.0781 Q83.9156,1062.9219 85.0094,1062.3125 Q86.1031,1061.6875 87.3375,1061.6875 Q88.0719,1061.6875 88.7125,1061.8594 Q89.3688,1062.0156 89.9156,1062.375 Z " fill="#000000"/><text fill="#000000" font-family="sans-serif" font-size="14" lengthAdjust="spacing" textLength="58" x="106.85" y="1072.2969">Echinops</text><line style="stroke:#181818;stroke-width:0.5;" x1="47.5" x2="192.5" y1="1082.5" y2="1082.5"/><rect fill="none" height="6" style="stroke:#C82930;stroke-width:1.0;" width="6" x="54.5" y="1094.3105"/><text fill="#000000" font-family="sans-serif" font-size="14" lengthAdjust="spacing" textLength="99" x="66.5" y="1101.6074">boolean isTerry</text><rect fill="none" height="6" style="stroke:#C82930;stroke-width:1.0;" width="6" x="54.5" y="1112.9316"/><text fill="#000000" font-family="sans-serif" font-size="14" lengthAdjust="spacing" textLength="111" x="66.5" y="1120.2285">boolean isBarbed</text><ellipse cx="57.5" cy="1157.1738" fill="#84BE84" rx="3" ry="3" style="stroke:#038048;stroke-width:1.0;"/><text fill="#000000" font-family="sans-serif" font-size="14" lengthAdjust="spacing" textLength="109" x="66.5" y="1161.4707">boolean isTerry()</text><ellipse cx="57.5" cy="1175.7949" fill="#84BE84" rx="3" ry="3" style="stroke:#038048;stroke-width:1.0;"/><text fill="#000000" font-family="sans-serif" font-size="14" lengthAdjust="spacing" textLength="121" x="66.5" y="1180.0918">boolean isBarbed()</text><line style="stroke:#181818;stroke-width:1.0;" x1="47.5" x2="93" y1="1137.0527" y2="1137.0527"/><line style="stroke:#181818;stroke-width:1.0;" x1="47.5" x2="93" y1="1139.0527" y2="1139.0527"/><text fill="#000000" font-family="sans-serif" font-size="14" lengthAdjust="spacing" textLength="54" x="93" y="1142.3496">Methods</text><line style="stroke:#181818;stroke-width:1.0;" x1="147" x2="192.5" y1="1137.0527" y2="1137.0527"/><line style="stroke:#181818;stroke-width:1.0;" x1="147" x2="192.5" y1="1139.0527" y2="1139.0527"/><line style="stroke:#181818;stroke-width:1.0;" x1="47.5" x2="192.5" y1="1187.6055" y2="1187.6055"/><ellipse cx="57.5" cy="1202.416" fill="#84BE84" rx="3" ry="3" style="stroke:#038048;stroke-width:1.0;"/><text fill="#000000" font-family="sans-serif" font-size="14" lengthAdjust="spacing" textLength="107" x="66.5" y="1206.7129">boolean equals()</text><ellipse cx="57.5" cy="1221.0371" fill="#84BE84" rx="3" ry="3" style="stroke:#038048;stroke-width:1.0;"/><text fill="#000000" font-family="sans-serif" font-size="14" lengthAdjust="spacing" textLength="94" x="66.5" y="1225.334">int hashCode()</text><ellipse cx="57.5" cy="1239.6582" fill="#84BE84" rx="3" ry="3" style="stroke:#038048;stroke-width:1.0;"/><text fill="#000000" font-family="sans-serif" font-size="14" lengthAdjust="spacing" textLength="100" x="66.5" y="1243.9551">String toString()</text></g><!--class Gypsophila--><g id="elem_Gypsophila"><rect codeLine="37" fill="#F1F1F1" height="163.7266" id="Gypsophila" rx="2.5" ry="2.5" style="stroke:#181818;stroke-width:0.5;" width="135" x="228.5" y="1069"/><ellipse cx="257.9" cy="1085" fill="#ADD1B2" rx="11" ry="11" style="stroke:#181818;stroke-width:1.0;"/><path d="M260.6656,1080.875 Q260.8219,1080.6563 261.0094,1080.5469 Q261.1969,1080.4375 261.4156,1080.4375 Q261.7906,1080.4375 262.025,1080.7031 Q262.2594,1080.9531 262.2594,1081.5625 L262.2594,1083.0156 Q262.2594,1083.625 262.025,1083.8906 Q261.7906,1084.1563 261.4156,1084.1563 Q261.0719,1084.1563 260.8688,1083.9531 Q260.6656,1083.7656 260.5563,1083.25 Q260.5094,1082.8906 260.3219,1082.7031 Q259.9938,1082.3281 259.3844,1082.1094 Q258.775,1081.8906 258.15,1081.8906 Q257.3844,1081.8906 256.7438,1082.2188 Q256.1188,1082.5469 255.6187,1083.2969 Q255.1344,1084.0469 255.1344,1085.0781 L255.1344,1086.1719 Q255.1344,1087.4063 256.025,1088.2344 Q256.9156,1089.0469 258.5094,1089.0469 Q259.4469,1089.0469 260.1031,1088.7969 Q260.4938,1088.6406 260.9156,1088.2031 Q261.1813,1087.9375 261.3219,1087.8594 Q261.4781,1087.7813 261.6813,1087.7813 Q262.0094,1087.7813 262.2594,1088.0469 Q262.525,1088.2969 262.525,1088.6406 Q262.525,1088.9844 262.1813,1089.3906 Q261.6813,1089.9688 260.8844,1090.2969 Q259.8063,1090.75 258.5094,1090.75 Q256.9938,1090.75 255.7906,1090.125 Q254.8062,1089.625 254.1187,1088.5625 Q253.4312,1087.4844 253.4312,1086.2031 L253.4312,1085.0469 Q253.4312,1083.7188 254.0406,1082.5781 Q254.6656,1081.4219 255.7594,1080.8125 Q256.8531,1080.1875 258.0875,1080.1875 Q258.8219,1080.1875 259.4625,1080.3594 Q260.1188,1080.5156 260.6656,1080.875 Z " fill="#000000"/><text fill="#000000" font-family="sans-serif" font-size="14" lengthAdjust="spacing" textLength="71" x="275.1" y="1090.7969">Gypsophila</text><line style="stroke:#181818;stroke-width:0.5;" x1="229.5" x2="362.5" y1="1101" y2="1101"/><rect fill="none" height="6" style="stroke:#C82930;stroke-width:1.0;" width="6" x="236.5" y="1112.8105"/><text fill="#000000" font-family="sans-serif" font-size="14" lengthAdjust="spacing" textLength="99" x="248.5" y="1120.1074">boolean isTerry</text><ellipse cx="239.5" cy="1157.0527" fill="#84BE84" rx="3" ry="3" style="stroke:#038048;stroke-width:1.0;"/><text fill="#000000" font-family="sans-serif" font-size="14" lengthAdjust="spacing" textLength="109" x="248.5" y="1161.3496">boolean isTerry()</text><line style="stroke:#181818;stroke-width:1.0;" x1="229.5" x2="269" y1="1136.9316" y2="1136.9316"/><line style="stroke:#181818;stroke-width:1.0;" x1="229.5" x2="269" y1="1138.9316" y2="1138.9316"/><text fill="#000000" font-family="sans-serif" font-size="14" lengthAdjust="spacing" textLength="54" x="269" y="1142.2285">Methods</text><line style="stroke:#181818;stroke-width:1.0;" x1="323" x2="362.5" y1="1136.9316" y2="1136.9316"/><line style="stroke:#181818;stroke-width:1.0;" x1="323" x2="362.5" y1="1138.9316" y2="1138.9316"/><line style="stroke:#181818;stroke-width:1.0;" x1="229.5" x2="362.5" y1="1168.8633" y2="1168.8633"/><ellipse cx="239.5" cy="1183.6738" fill="#84BE84" rx="3" ry="3" style="stroke:#038048;stroke-width:1.0;"/><text fill="#000000" font-family="sans-serif" font-size="14" lengthAdjust="spacing" textLength="107" x="248.5" y="1187.9707">boolean equals()</text><ellipse cx="239.5" cy="1202.2949" fill="#84BE84" rx="3" ry="3" style="stroke:#038048;stroke-width:1.0;"/><text fill="#000000" font-family="sans-serif" font-size="14" lengthAdjust="spacing" textLength="94" x="248.5" y="1206.5918">int hashCode()</text><ellipse cx="239.5" cy="1220.916" fill="#84BE84" rx="3" ry="3" style="stroke:#038048;stroke-width:1.0;"/><text fill="#000000" font-family="sans-serif" font-size="14" lengthAdjust="spacing" textLength="100" x="248.5" y="1225.2129">String toString()</text></g><!--class BushFlower--><g id="elem_BushFlower"><rect codeLine="49" fill="#F1F1F1" height="182.3477" id="BushFlower" rx="2.5" ry="2.5" style="stroke:#181818;stroke-width:0.5;" width="183" x="603.5" y="780.5"/><ellipse cx="653.75" cy="796.5" fill="#ADD1B2" rx="11" ry="11" style="stroke:#181818;stroke-width:1.0;"/><path d="M656.5156,792.375 Q656.6719,792.1563 656.8594,792.0469 Q657.0469,791.9375 657.2656,791.9375 Q657.6406,791.9375 657.875,792.2031 Q658.1094,792.4531 658.1094,793.0625 L658.1094,794.5156 Q658.1094,795.125 657.875,795.3906 Q657.6406,795.6563 657.2656,795.6563 Q656.9219,795.6563 656.7188,795.4531 Q656.5156,795.2656 656.4063,794.75 Q656.3594,794.3906 656.1719,794.2031 Q655.8438,793.8281 655.2344,793.6094 Q654.625,793.3906 654,793.3906 Q653.2344,793.3906 652.5938,793.7188 Q651.9688,794.0469 651.4688,794.7969 Q650.9844,795.5469 650.9844,796.5781 L650.9844,797.6719 Q650.9844,798.9063 651.875,799.7344 Q652.7656,800.5469 654.3594,800.5469 Q655.2969,800.5469 655.9531,800.2969 Q656.3438,800.1406 656.7656,799.7031 Q657.0313,799.4375 657.1719,799.3594 Q657.3281,799.2813 657.5313,799.2813 Q657.8594,799.2813 658.1094,799.5469 Q658.375,799.7969 658.375,800.1406 Q658.375,800.4844 658.0313,800.8906 Q657.5313,801.4688 656.7344,801.7969 Q655.6563,802.25 654.3594,802.25 Q652.8438,802.25 651.6406,801.625 Q650.6563,801.125 649.9688,800.0625 Q649.2813,798.9844 649.2813,797.7031 L649.2813,796.5469 Q649.2813,795.2188 649.8906,794.0781 Q650.5156,792.9219 651.6094,792.3125 Q652.7031,791.6875 653.9375,791.6875 Q654.6719,791.6875 655.3125,791.8594 Q655.9688,792.0156 656.5156,792.375 Z " fill="#000000"/><text fill="#000000" font-family="sans-serif" font-size="14" lengthAdjust="spacing" textLength="74" x="674.25" y="802.2969">BushFlower</text><line style="stroke:#181818;stroke-width:0.5;" x1="604.5" x2="785.5" y1="812.5" y2="812.5"/><polygon fill="none" points="614.5,822.3105,618.5,826.3105,614.5,830.3105,610.5,826.3105" style="stroke:#B38D22;stroke-width:1.0;"/><text fill="#000000" font-family="sans-serif" font-size="14" lengthAdjust="spacing" textLength="114" x="623.5" y="831.6074">boolean hasFetus</text><polygon fill="none" points="614.5,840.9316,618.5,844.9316,614.5,848.9316,610.5,844.9316" style="stroke:#B38D22;stroke-width:1.0;"/><text fill="#000000" font-family="sans-serif" font-size="14" lengthAdjust="spacing" textLength="157" x="623.5" y="850.2285">boolean isFrostResistant</text><ellipse cx="614.5" cy="887.1738" fill="#84BE84" rx="3" ry="3" style="stroke:#038048;stroke-width:1.0;"/><text fill="#000000" font-family="sans-serif" font-size="14" lengthAdjust="spacing" textLength="126" x="623.5" y="891.4707">void setFreshness()</text><line style="stroke:#181818;stroke-width:1.0;" x1="604.5" x2="668" y1="867.0527" y2="867.0527"/><line style="stroke:#181818;stroke-width:1.0;" x1="604.5" x2="668" y1="869.0527" y2="869.0527"/><text fill="#000000" font-family="sans-serif" font-size="14" lengthAdjust="spacing" textLength="54" x="668" y="872.3496">Methods</text><line style="stroke:#181818;stroke-width:1.0;" x1="722" x2="785.5" y1="867.0527" y2="867.0527"/><line style="stroke:#181818;stroke-width:1.0;" x1="722" x2="785.5" y1="869.0527" y2="869.0527"/><line style="stroke:#181818;stroke-width:1.0;" x1="604.5" x2="785.5" y1="898.9844" y2="898.9844"/><ellipse cx="614.5" cy="913.7949" fill="#84BE84" rx="3" ry="3" style="stroke:#038048;stroke-width:1.0;"/><text fill="#000000" font-family="sans-serif" font-size="14" lengthAdjust="spacing" textLength="107" x="623.5" y="918.0918">boolean equals()</text><ellipse cx="614.5" cy="932.416" fill="#84BE84" rx="3" ry="3" style="stroke:#038048;stroke-width:1.0;"/><text fill="#000000" font-family="sans-serif" font-size="14" lengthAdjust="spacing" textLength="94" x="623.5" y="936.7129">int hashCode()</text><ellipse cx="614.5" cy="951.0371" fill="#84BE84" rx="3" ry="3" style="stroke:#038048;stroke-width:1.0;"/><text fill="#000000" font-family="sans-serif" font-size="14" lengthAdjust="spacing" textLength="100" x="623.5" y="955.334">String toString()</text></g><!--class Lilac--><g id="elem_Lilac"><rect codeLine="60" fill="#F1F1F1" height="238.2109" id="Lilac" rx="2.5" ry="2.5" style="stroke:#181818;stroke-width:0.5;" width="175" x="420.5" y="1032"/><ellipse cx="489.25" cy="1048" fill="#ADD1B2" rx="11" ry="11" style="stroke:#181818;stroke-width:1.0;"/><path d="M492.0156,1043.875 Q492.1719,1043.6563 492.3594,1043.5469 Q492.5469,1043.4375 492.7656,1043.4375 Q493.1406,1043.4375 493.375,1043.7031 Q493.6094,1043.9531 493.6094,1044.5625 L493.6094,1046.0156 Q493.6094,1046.625 493.375,1046.8906 Q493.1406,1047.1563 492.7656,1047.1563 Q492.4219,1047.1563 492.2188,1046.9531 Q492.0156,1046.7656 491.9063,1046.25 Q491.8594,1045.8906 491.6719,1045.7031 Q491.3438,1045.3281 490.7344,1045.1094 Q490.125,1044.8906 489.5,1044.8906 Q488.7344,1044.8906 488.0938,1045.2188 Q487.4688,1045.5469 486.9688,1046.2969 Q486.4844,1047.0469 486.4844,1048.0781 L486.4844,1049.1719 Q486.4844,1050.4063 487.375,1051.2344 Q488.2656,1052.0469 489.8594,1052.0469 Q490.7969,1052.0469 491.4531,1051.7969 Q491.8438,1051.6406 492.2656,1051.2031 Q492.5313,1050.9375 492.6719,1050.8594 Q492.8281,1050.7813 493.0313,1050.7813 Q493.3594,1050.7813 493.6094,1051.0469 Q493.875,1051.2969 493.875,1051.6406 Q493.875,1051.9844 493.5313,1052.3906 Q493.0313,1052.9688 492.2344,1053.2969 Q491.1563,1053.75 489.8594,1053.75 Q488.3438,1053.75 487.1406,1053.125 Q486.1563,1052.625 485.4688,1051.5625 Q484.7813,1050.4844 484.7813,1049.2031 L484.7813,1048.0469 Q484.7813,1046.7188 485.3906,1045.5781 Q486.0156,1044.4219 487.1094,1043.8125 Q488.2031,1043.1875 489.4375,1043.1875 Q490.1719,1043.1875 490.8125,1043.3594 Q491.4688,1043.5156 492.0156,1043.875 Z " fill="#000000"/><text fill="#000000" font-family="sans-serif" font-size="14" lengthAdjust="spacing" textLength="29" x="509.75" y="1053.7969">Lilac</text><line style="stroke:#181818;stroke-width:0.5;" x1="421.5" x2="594.5" y1="1064" y2="1064"/><rect fill="none" height="6" style="stroke:#C82930;stroke-width:1.0;" width="6" x="428.5" y="1075.8105"/><text fill="#000000" font-family="sans-serif" font-size="14" lengthAdjust="spacing" textLength="122" x="440.5" y="1083.1074">boolean hasEdging</text><rect fill="none" height="6" style="stroke:#C82930;stroke-width:1.0;" width="6" x="428.5" y="1094.4316"/><text fill="#000000" font-family="sans-serif" font-size="14" lengthAdjust="spacing" textLength="118" x="440.5" y="1101.7285">String edgingColor</text><ellipse cx="431.5" cy="1138.6738" fill="#84BE84" rx="3" ry="3" style="stroke:#038048;stroke-width:1.0;"/><text fill="#000000" font-family="sans-serif" font-size="14" lengthAdjust="spacing" textLength="132" x="440.5" y="1142.9707">boolean hasEdging()</text><ellipse cx="431.5" cy="1157.2949" fill="#84BE84" rx="3" ry="3" style="stroke:#038048;stroke-width:1.0;"/><text fill="#000000" font-family="sans-serif" font-size="14" lengthAdjust="spacing" textLength="149" x="440.5" y="1161.5918">String getEdgingColor()</text><ellipse cx="431.5" cy="1175.916" fill="#84BE84" rx="3" ry="3" style="stroke:#038048;stroke-width:1.0;"/><text fill="#000000" font-family="sans-serif" font-size="14" lengthAdjust="spacing" textLength="137" x="440.5" y="1180.2129">void setEdgingColor()</text><ellipse cx="431.5" cy="1194.5371" fill="#84BE84" rx="3" ry="3" style="stroke:#038048;stroke-width:1.0;"/><text fill="#000000" font-family="sans-serif" font-size="14" lengthAdjust="spacing" textLength="126" x="440.5" y="1198.834">void setFreshness()</text><line style="stroke:#181818;stroke-width:1.0;" x1="421.5" x2="481" y1="1118.5527" y2="1118.5527"/><line style="stroke:#181818;stroke-width:1.0;" x1="421.5" x2="481" y1="1120.5527" y2="1120.5527"/><text fill="#000000" font-family="sans-serif" font-size="14" lengthAdjust="spacing" textLength="54" x="481" y="1123.8496">Methods</text><line style="stroke:#181818;stroke-width:1.0;" x1="535" x2="594.5" y1="1118.5527" y2="1118.5527"/><line style="stroke:#181818;stroke-width:1.0;" x1="535" x2="594.5" y1="1120.5527" y2="1120.5527"/><line style="stroke:#181818;stroke-width:1.0;" x1="421.5" x2="594.5" y1="1206.3477" y2="1206.3477"/><ellipse cx="431.5" cy="1221.1582" fill="#84BE84" rx="3" ry="3" style="stroke:#038048;stroke-width:1.0;"/><text fill="#000000" font-family="sans-serif" font-size="14" lengthAdjust="spacing" textLength="107" x="440.5" y="1225.4551">boolean equals()</text><ellipse cx="431.5" cy="1239.7793" fill="#84BE84" rx="3" ry="3" style="stroke:#038048;stroke-width:1.0;"/><text fill="#000000" font-family="sans-serif" font-size="14" lengthAdjust="spacing" textLength="96" x="440.5" y="1244.0762">int hasEdging()</text><ellipse cx="431.5" cy="1258.4004" fill="#84BE84" rx="3" ry="3" style="stroke:#038048;stroke-width:1.0;"/><text fill="#000000" font-family="sans-serif" font-size="14" lengthAdjust="spacing" textLength="100" x="440.5" y="1262.6973">String toString()</text></g><!--class Rose--><g id="elem_Rose"><rect codeLine="74" fill="#F1F1F1" height="163.7266" id="Rose" rx="2.5" ry="2.5" style="stroke:#181818;stroke-width:0.5;" width="156" x="631" y="1069"/><ellipse cx="688.25" cy="1085" fill="#ADD1B2" rx="11" ry="11" style="stroke:#181818;stroke-width:1.0;"/><path d="M691.0156,1080.875 Q691.1719,1080.6563 691.3594,1080.5469 Q691.5469,1080.4375 691.7656,1080.4375 Q692.1406,1080.4375 692.375,1080.7031 Q692.6094,1080.9531 692.6094,1081.5625 L692.6094,1083.0156 Q692.6094,1083.625 692.375,1083.8906 Q692.1406,1084.1563 691.7656,1084.1563 Q691.4219,1084.1563 691.2188,1083.9531 Q691.0156,1083.7656 690.9063,1083.25 Q690.8594,1082.8906 690.6719,1082.7031 Q690.3438,1082.3281 689.7344,1082.1094 Q689.125,1081.8906 688.5,1081.8906 Q687.7344,1081.8906 687.0938,1082.2188 Q686.4688,1082.5469 685.9688,1083.2969 Q685.4844,1084.0469 685.4844,1085.0781 L685.4844,1086.1719 Q685.4844,1087.4063 686.375,1088.2344 Q687.2656,1089.0469 688.8594,1089.0469 Q689.7969,1089.0469 690.4531,1088.7969 Q690.8438,1088.6406 691.2656,1088.2031 Q691.5313,1087.9375 691.6719,1087.8594 Q691.8281,1087.7813 692.0313,1087.7813 Q692.3594,1087.7813 692.6094,1088.0469 Q692.875,1088.2969 692.875,1088.6406 Q692.875,1088.9844 692.5313,1089.3906 Q692.0313,1089.9688 691.2344,1090.2969 Q690.1563,1090.75 688.8594,1090.75 Q687.3438,1090.75 686.1406,1090.125 Q685.1563,1089.625 684.4688,1088.5625 Q683.7813,1087.4844 683.7813,1086.2031 L683.7813,1085.0469 Q683.7813,1083.7188 684.3906,1082.5781 Q685.0156,1081.4219 686.1094,1080.8125 Q687.2031,1080.1875 688.4375,1080.1875 Q689.1719,1080.1875 689.8125,1080.3594 Q690.4688,1080.5156 691.0156,1080.875 Z " fill="#000000"/><text fill="#000000" font-family="sans-serif" font-size="14" lengthAdjust="spacing" textLength="33" x="708.75" y="1090.7969">Rose</text><line style="stroke:#181818;stroke-width:0.5;" x1="632" x2="786" y1="1101" y2="1101"/><rect fill="none" height="6" style="stroke:#C82930;stroke-width:1.0;" width="6" x="639" y="1112.8105"/><text fill="#000000" font-family="sans-serif" font-size="14" lengthAdjust="spacing" textLength="120" x="651" y="1120.1074">boolean hasSpikes</text><ellipse cx="642" cy="1157.0527" fill="#84BE84" rx="3" ry="3" style="stroke:#038048;stroke-width:1.0;"/><text fill="#000000" font-family="sans-serif" font-size="14" lengthAdjust="spacing" textLength="130" x="651" y="1161.3496">boolean hasSpikes()</text><line style="stroke:#181818;stroke-width:1.0;" x1="632" x2="682" y1="1136.9316" y2="1136.9316"/><line style="stroke:#181818;stroke-width:1.0;" x1="632" x2="682" y1="1138.9316" y2="1138.9316"/><text fill="#000000" font-family="sans-serif" font-size="14" lengthAdjust="spacing" textLength="54" x="682" y="1142.2285">Methods</text><line style="stroke:#181818;stroke-width:1.0;" x1="736" x2="786" y1="1136.9316" y2="1136.9316"/><line style="stroke:#181818;stroke-width:1.0;" x1="736" x2="786" y1="1138.9316" y2="1138.9316"/><line style="stroke:#181818;stroke-width:1.0;" x1="632" x2="786" y1="1168.8633" y2="1168.8633"/><ellipse cx="642" cy="1183.6738" fill="#84BE84" rx="3" ry="3" style="stroke:#038048;stroke-width:1.0;"/><text fill="#000000" font-family="sans-serif" font-size="14" lengthAdjust="spacing" textLength="107" x="651" y="1187.9707">boolean equals()</text><ellipse cx="642" cy="1202.2949" fill="#84BE84" rx="3" ry="3" style="stroke:#038048;stroke-width:1.0;"/><text fill="#000000" font-family="sans-serif" font-size="14" lengthAdjust="spacing" textLength="94" x="651" y="1206.5918">int hashCode()</text><ellipse cx="642" cy="1220.916" fill="#84BE84" rx="3" ry="3" style="stroke:#038048;stroke-width:1.0;"/><text fill="#000000" font-family="sans-serif" font-size="14" lengthAdjust="spacing" textLength="100" x="651" y="1225.2129">String toString()</text></g><!--class MeadowFlower--><g id="elem_MeadowFlower"><rect codeLine="86" fill="#F1F1F1" height="163.7266" id="MeadowFlower" rx="2.5" ry="2.5" style="stroke:#181818;stroke-width:0.5;" width="183" x="843.5" y="789.5"/><ellipse cx="884.15" cy="805.5" fill="#ADD1B2" rx="11" ry="11" style="stroke:#181818;stroke-width:1.0;"/><path d="M886.9156,801.375 Q887.0719,801.1563 887.2594,801.0469 Q887.4469,800.9375 887.6656,800.9375 Q888.0406,800.9375 888.275,801.2031 Q888.5094,801.4531 888.5094,802.0625 L888.5094,803.5156 Q888.5094,804.125 888.275,804.3906 Q888.0406,804.6563 887.6656,804.6563 Q887.3219,804.6563 887.1188,804.4531 Q886.9156,804.2656 886.8063,803.75 Q886.7594,803.3906 886.5719,803.2031 Q886.2438,802.8281 885.6344,802.6094 Q885.025,802.3906 884.4,802.3906 Q883.6344,802.3906 882.9938,802.7188 Q882.3688,803.0469 881.8688,803.7969 Q881.3844,804.5469 881.3844,805.5781 L881.3844,806.6719 Q881.3844,807.9063 882.275,808.7344 Q883.1656,809.5469 884.7594,809.5469 Q885.6969,809.5469 886.3531,809.2969 Q886.7438,809.1406 887.1656,808.7031 Q887.4313,808.4375 887.5719,808.3594 Q887.7281,808.2813 887.9313,808.2813 Q888.2594,808.2813 888.5094,808.5469 Q888.775,808.7969 888.775,809.1406 Q888.775,809.4844 888.4313,809.8906 Q887.9313,810.4688 887.1344,810.7969 Q886.0563,811.25 884.7594,811.25 Q883.2438,811.25 882.0406,810.625 Q881.0563,810.125 880.3688,809.0625 Q879.6813,807.9844 879.6813,806.7031 L879.6813,805.5469 Q879.6813,804.2188 880.2906,803.0781 Q880.9156,801.9219 882.0094,801.3125 Q883.1031,800.6875 884.3375,800.6875 Q885.0719,800.6875 885.7125,800.8594 Q886.3688,801.0156 886.9156,801.375 Z " fill="#000000"/><text fill="#000000" font-family="sans-serif" font-size="14" lengthAdjust="spacing" textLength="94" x="903.85" y="811.2969">MeadowFlower</text><line style="stroke:#181818;stroke-width:0.5;" x1="844.5" x2="1025.5" y1="821.5" y2="821.5"/><rect fill="none" height="6" style="stroke:#C82930;stroke-width:1.0;" width="6" x="851.5" y="833.3105"/><text fill="#000000" font-family="sans-serif" font-size="14" lengthAdjust="spacing" textLength="157" x="863.5" y="840.6074">boolean isFrostResistant</text><ellipse cx="854.5" cy="877.5527" fill="#84BE84" rx="3" ry="3" style="stroke:#038048;stroke-width:1.0;"/><text fill="#000000" font-family="sans-serif" font-size="14" lengthAdjust="spacing" textLength="126" x="863.5" y="881.8496">void setFreshness()</text><line style="stroke:#181818;stroke-width:1.0;" x1="844.5" x2="908" y1="857.4316" y2="857.4316"/><line style="stroke:#181818;stroke-width:1.0;" x1="844.5" x2="908" y1="859.4316" y2="859.4316"/><text fill="#000000" font-family="sans-serif" font-size="14" lengthAdjust="spacing" textLength="54" x="908" y="862.7285">Methods</text><line style="stroke:#181818;stroke-width:1.0;" x1="962" x2="1025.5" y1="857.4316" y2="857.4316"/><line style="stroke:#181818;stroke-width:1.0;" x1="962" x2="1025.5" y1="859.4316" y2="859.4316"/><line style="stroke:#181818;stroke-width:1.0;" x1="844.5" x2="1025.5" y1="889.3633" y2="889.3633"/><ellipse cx="854.5" cy="904.1738" fill="#84BE84" rx="3" ry="3" style="stroke:#038048;stroke-width:1.0;"/><text fill="#000000" font-family="sans-serif" font-size="14" lengthAdjust="spacing" textLength="107" x="863.5" y="908.4707">boolean equals()</text><ellipse cx="854.5" cy="922.7949" fill="#84BE84" rx="3" ry="3" style="stroke:#038048;stroke-width:1.0;"/><text fill="#000000" font-family="sans-serif" font-size="14" lengthAdjust="spacing" textLength="94" x="863.5" y="927.0918">int hashCode()</text><ellipse cx="854.5" cy="941.416" fill="#84BE84" rx="3" ry="3" style="stroke:#038048;stroke-width:1.0;"/><text fill="#000000" font-family="sans-serif" font-size="14" lengthAdjust="spacing" textLength="100" x="863.5" y="945.7129">String toString()</text></g><!--class Chamomile--><g id="elem_Chamomile"><rect codeLine="96" fill="#F1F1F1" height="118.4844" id="Chamomile" rx="2.5" ry="2.5" style="stroke:#181818;stroke-width:0.5;" width="133" x="868.5" y="1092"/><ellipse cx="897.45" cy="1108" fill="#ADD1B2" rx="11" ry="11" style="stroke:#181818;stroke-width:1.0;"/><path d="M900.2156,1103.875 Q900.3719,1103.6563 900.5594,1103.5469 Q900.7469,1103.4375 900.9656,1103.4375 Q901.3406,1103.4375 901.575,1103.7031 Q901.8094,1103.9531 901.8094,1104.5625 L901.8094,1106.0156 Q901.8094,1106.625 901.575,1106.8906 Q901.3406,1107.1563 900.9656,1107.1563 Q900.6219,1107.1563 900.4188,1106.9531 Q900.2156,1106.7656 900.1063,1106.25 Q900.0594,1105.8906 899.8719,1105.7031 Q899.5438,1105.3281 898.9344,1105.1094 Q898.325,1104.8906 897.7,1104.8906 Q896.9344,1104.8906 896.2938,1105.2188 Q895.6688,1105.5469 895.1688,1106.2969 Q894.6844,1107.0469 894.6844,1108.0781 L894.6844,1109.1719 Q894.6844,1110.4063 895.575,1111.2344 Q896.4656,1112.0469 898.0594,1112.0469 Q898.9969,1112.0469 899.6531,1111.7969 Q900.0438,1111.6406 900.4656,1111.2031 Q900.7313,1110.9375 900.8719,1110.8594 Q901.0281,1110.7813 901.2313,1110.7813 Q901.5594,1110.7813 901.8094,1111.0469 Q902.075,1111.2969 902.075,1111.6406 Q902.075,1111.9844 901.7313,1112.3906 Q901.2313,1112.9688 900.4344,1113.2969 Q899.3563,1113.75 898.0594,1113.75 Q896.5438,1113.75 895.3406,1113.125 Q894.3563,1112.625 893.6688,1111.5625 Q892.9813,1110.4844 892.9813,1109.2031 L892.9813,1108.0469 Q892.9813,1106.7188 893.5906,1105.5781 Q894.2156,1104.4219 895.3094,1103.8125 Q896.4031,1103.1875 897.6375,1103.1875 Q898.3719,1103.1875 899.0125,1103.3594 Q899.6688,1103.5156 900.2156,1103.875 Z " fill="#000000"/><text fill="#000000" font-family="sans-serif" font-size="14" lengthAdjust="spacing" textLength="70" x="914.55" y="1113.7969">Chamomile</text><line style="stroke:#181818;stroke-width:0.5;" x1="869.5" x2="1000.5" y1="1124" y2="1124"/><ellipse cx="879.5" cy="1161.4316" fill="#84BE84" rx="3" ry="3" style="stroke:#038048;stroke-width:1.0;"/><text fill="#000000" font-family="sans-serif" font-size="14" lengthAdjust="spacing" textLength="107" x="888.5" y="1165.7285">boolean equals()</text><ellipse cx="879.5" cy="1180.0527" fill="#84BE84" rx="3" ry="3" style="stroke:#038048;stroke-width:1.0;"/><text fill="#000000" font-family="sans-serif" font-size="14" lengthAdjust="spacing" textLength="94" x="888.5" y="1184.3496">int hashCode()</text><ellipse cx="879.5" cy="1198.6738" fill="#84BE84" rx="3" ry="3" style="stroke:#038048;stroke-width:1.0;"/><text fill="#000000" font-family="sans-serif" font-size="14" lengthAdjust="spacing" textLength="100" x="888.5" y="1202.9707">String toString()</text><line style="stroke:#181818;stroke-width:1.0;" x1="869.5" x2="908" y1="1141.3105" y2="1141.3105"/><line style="stroke:#181818;stroke-width:1.0;" x1="869.5" x2="908" y1="1143.3105" y2="1143.3105"/><text fill="#000000" font-family="sans-serif" font-size="14" lengthAdjust="spacing" textLength="54" x="908" y="1146.6074">Methods</text><line style="stroke:#181818;stroke-width:1.0;" x1="962" x2="1000.5" y1="1141.3105" y2="1141.3105"/><line style="stroke:#181818;stroke-width:1.0;" x1="962" x2="1000.5" y1="1143.3105" y2="1143.3105"/></g><!--class BulbousFlower--><g id="elem_BulbousFlower"><rect codeLine="105" fill="#F1F1F1" height="163.7266" id="BulbousFlower" rx="2.5" ry="2.5" style="stroke:#181818;stroke-width:0.5;" width="183" x="1083.5" y="789.5"/><ellipse cx="1124.6" cy="805.5" fill="#ADD1B2" rx="11" ry="11" style="stroke:#181818;stroke-width:1.0;"/><path d="M1127.3656,801.375 Q1127.5219,801.1563 1127.7094,801.0469 Q1127.8969,800.9375 1128.1156,800.9375 Q1128.4906,800.9375 1128.725,801.2031 Q1128.9594,801.4531 1128.9594,802.0625 L1128.9594,803.5156 Q1128.9594,804.125 1128.725,804.3906 Q1128.4906,804.6563 1128.1156,804.6563 Q1127.7719,804.6563 1127.5688,804.4531 Q1127.3656,804.2656 1127.2563,803.75 Q1127.2094,803.3906 1127.0219,803.2031 Q1126.6938,802.8281 1126.0844,802.6094 Q1125.475,802.3906 1124.85,802.3906 Q1124.0844,802.3906 1123.4438,802.7188 Q1122.8188,803.0469 1122.3188,803.7969 Q1121.8344,804.5469 1121.8344,805.5781 L1121.8344,806.6719 Q1121.8344,807.9063 1122.725,808.7344 Q1123.6156,809.5469 1125.2094,809.5469 Q1126.1469,809.5469 1126.8031,809.2969 Q1127.1938,809.1406 1127.6156,808.7031 Q1127.8813,808.4375 1128.0219,808.3594 Q1128.1781,808.2813 1128.3813,808.2813 Q1128.7094,808.2813 1128.9594,808.5469 Q1129.225,808.7969 1129.225,809.1406 Q1129.225,809.4844 1128.8813,809.8906 Q1128.3813,810.4688 1127.5844,810.7969 Q1126.5063,811.25 1125.2094,811.25 Q1123.6938,811.25 1122.4906,810.625 Q1121.5063,810.125 1120.8188,809.0625 Q1120.1313,807.9844 1120.1313,806.7031 L1120.1313,805.5469 Q1120.1313,804.2188 1120.7406,803.0781 Q1121.3656,801.9219 1122.4594,801.3125 Q1123.5531,800.6875 1124.7875,800.6875 Q1125.5219,800.6875 1126.1625,800.8594 Q1126.8188,801.0156 1127.3656,801.375 Z " fill="#000000"/><text fill="#000000" font-family="sans-serif" font-size="14" lengthAdjust="spacing" textLength="93" x="1144.4" y="811.2969">BulbousFlower</text><line style="stroke:#181818;stroke-width:0.5;" x1="1084.5" x2="1265.5" y1="821.5" y2="821.5"/><polygon fill="none" points="1094.5,831.3105,1098.5,835.3105,1094.5,839.3105,1090.5,835.3105" style="stroke:#B38D22;stroke-width:1.0;"/><text fill="#000000" font-family="sans-serif" font-size="14" lengthAdjust="spacing" textLength="157" x="1103.5" y="840.6074">boolean isFrostResistant</text><ellipse cx="1094.5" cy="877.5527" fill="#84BE84" rx="3" ry="3" style="stroke:#038048;stroke-width:1.0;"/><text fill="#000000" font-family="sans-serif" font-size="14" lengthAdjust="spacing" textLength="126" x="1103.5" y="881.8496">void setFreshness()</text><line style="stroke:#181818;stroke-width:1.0;" x1="1084.5" x2="1148" y1="857.4316" y2="857.4316"/><line style="stroke:#181818;stroke-width:1.0;" x1="1084.5" x2="1148" y1="859.4316" y2="859.4316"/><text fill="#000000" font-family="sans-serif" font-size="14" lengthAdjust="spacing" textLength="54" x="1148" y="862.7285">Methods</text><line style="stroke:#181818;stroke-width:1.0;" x1="1202" x2="1265.5" y1="857.4316" y2="857.4316"/><line style="stroke:#181818;stroke-width:1.0;" x1="1202" x2="1265.5" y1="859.4316" y2="859.4316"/><line style="stroke:#181818;stroke-width:1.0;" x1="1084.5" x2="1265.5" y1="889.3633" y2="889.3633"/><ellipse cx="1094.5" cy="904.1738" fill="#84BE84" rx="3" ry="3" style="stroke:#038048;stroke-width:1.0;"/><text fill="#000000" font-family="sans-serif" font-size="14" lengthAdjust="spacing" textLength="107" x="1103.5" y="908.4707">boolean equals()</text><ellipse cx="1094.5" cy="922.7949" fill="#84BE84" rx="3" ry="3" style="stroke:#038048;stroke-width:1.0;"/><text fill="#000000" font-family="sans-serif" font-size="14" lengthAdjust="spacing" textLength="94" x="1103.5" y="927.0918">int hashCode()</text><ellipse cx="1094.5" cy="941.416" fill="#84BE84" rx="3" ry="3" style="stroke:#038048;stroke-width:1.0;"/><text fill="#000000" font-family="sans-serif" font-size="14" lengthAdjust="spacing" textLength="100" x="1103.5" y="945.7129">String toString()</text></g><!--class Narcissus--><g id="elem_Narcissus"><rect codeLine="115" fill="#F1F1F1" height="163.7266" id="Narcissus" rx="2.5" ry="2.5" style="stroke:#181818;stroke-width:0.5;" width="179" x="1083.5" y="1069"/><ellipse cx="1138.25" cy="1085" fill="#ADD1B2" rx="11" ry="11" style="stroke:#181818;stroke-width:1.0;"/><path d="M1141.0156,1080.875 Q1141.1719,1080.6563 1141.3594,1080.5469 Q1141.5469,1080.4375 1141.7656,1080.4375 Q1142.1406,1080.4375 1142.375,1080.7031 Q1142.6094,1080.9531 1142.6094,1081.5625 L1142.6094,1083.0156 Q1142.6094,1083.625 1142.375,1083.8906 Q1142.1406,1084.1563 1141.7656,1084.1563 Q1141.4219,1084.1563 1141.2188,1083.9531 Q1141.0156,1083.7656 1140.9063,1083.25 Q1140.8594,1082.8906 1140.6719,1082.7031 Q1140.3438,1082.3281 1139.7344,1082.1094 Q1139.125,1081.8906 1138.5,1081.8906 Q1137.7344,1081.8906 1137.0938,1082.2188 Q1136.4688,1082.5469 1135.9688,1083.2969 Q1135.4844,1084.0469 1135.4844,1085.0781 L1135.4844,1086.1719 Q1135.4844,1087.4063 1136.375,1088.2344 Q1137.2656,1089.0469 1138.8594,1089.0469 Q1139.7969,1089.0469 1140.4531,1088.7969 Q1140.8438,1088.6406 1141.2656,1088.2031 Q1141.5313,1087.9375 1141.6719,1087.8594 Q1141.8281,1087.7813 1142.0313,1087.7813 Q1142.3594,1087.7813 1142.6094,1088.0469 Q1142.875,1088.2969 1142.875,1088.6406 Q1142.875,1088.9844 1142.5313,1089.3906 Q1142.0313,1089.9688 1141.2344,1090.2969 Q1140.1563,1090.75 1138.8594,1090.75 Q1137.3438,1090.75 1136.1406,1090.125 Q1135.1563,1089.625 1134.4688,1088.5625 Q1133.7813,1087.4844 1133.7813,1086.2031 L1133.7813,1085.0469 Q1133.7813,1083.7188 1134.3906,1082.5781 Q1135.0156,1081.4219 1136.1094,1080.8125 Q1137.2031,1080.1875 1138.4375,1080.1875 Q1139.1719,1080.1875 1139.8125,1080.3594 Q1140.4688,1080.5156 1141.0156,1080.875 Z " fill="#000000"/><text fill="#000000" font-family="sans-serif" font-size="14" lengthAdjust="spacing" textLength="61" x="1158.75" y="1090.7969">Narcissus</text><line style="stroke:#181818;stroke-width:0.5;" x1="1084.5" x2="1261.5" y1="1101" y2="1101"/><rect fill="none" height="6" style="stroke:#C82930;stroke-width:1.0;" width="6" x="1091.5" y="1112.8105"/><text fill="#000000" font-family="sans-serif" font-size="14" lengthAdjust="spacing" textLength="121" x="1103.5" y="1120.1074">String secondColor</text><ellipse cx="1094.5" cy="1157.0527" fill="#84BE84" rx="3" ry="3" style="stroke:#038048;stroke-width:1.0;"/><text fill="#000000" font-family="sans-serif" font-size="14" lengthAdjust="spacing" textLength="153" x="1103.5" y="1161.3496">String getSecondColor()</text><line style="stroke:#181818;stroke-width:1.0;" x1="1084.5" x2="1146" y1="1136.9316" y2="1136.9316"/><line style="stroke:#181818;stroke-width:1.0;" x1="1084.5" x2="1146" y1="1138.9316" y2="1138.9316"/><text fill="#000000" font-family="sans-serif" font-size="14" lengthAdjust="spacing" textLength="54" x="1146" y="1142.2285">Methods</text><line style="stroke:#181818;stroke-width:1.0;" x1="1200" x2="1261.5" y1="1136.9316" y2="1136.9316"/><line style="stroke:#181818;stroke-width:1.0;" x1="1200" x2="1261.5" y1="1138.9316" y2="1138.9316"/><line style="stroke:#181818;stroke-width:1.0;" x1="1084.5" x2="1261.5" y1="1168.8633" y2="1168.8633"/><ellipse cx="1094.5" cy="1183.6738" fill="#84BE84" rx="3" ry="3" style="stroke:#038048;stroke-width:1.0;"/><text fill="#000000" font-family="sans-serif" font-size="14" lengthAdjust="spacing" textLength="107" x="1103.5" y="1187.9707">boolean equals()</text><ellipse cx="1094.5" cy="1202.2949" fill="#84BE84" rx="3" ry="3" style="stroke:#038048;stroke-width:1.0;"/><text fill="#000000" font-family="sans-serif" font-size="14" lengthAdjust="spacing" textLength="94" x="1103.5" y="1206.5918">int hashCode()</text><ellipse cx="1094.5" cy="1220.916" fill="#84BE84" rx="3" ry="3" style="stroke:#038048;stroke-width:1.0;"/><text fill="#000000" font-family="sans-serif" font-size="14" lengthAdjust="spacing" textLength="100" x="1103.5" y="1225.2129">String toString()</text></g><!--class Tulip--><g id="elem_Tulip"><rect codeLine="125" fill="#F1F1F1" height="163.7266" id="Tulip" rx="2.5" ry="2.5" style="stroke:#181818;stroke-width:0.5;" width="138" x="1298" y="1069"/><ellipse cx="1347.25" cy="1085" fill="#ADD1B2" rx="11" ry="11" style="stroke:#181818;stroke-width:1.0;"/><path d="M1350.0156,1080.875 Q1350.1719,1080.6563 1350.3594,1080.5469 Q1350.5469,1080.4375 1350.7656,1080.4375 Q1351.1406,1080.4375 1351.375,1080.7031 Q1351.6094,1080.9531 1351.6094,1081.5625 L1351.6094,1083.0156 Q1351.6094,1083.625 1351.375,1083.8906 Q1351.1406,1084.1563 1350.7656,1084.1563 Q1350.4219,1084.1563 1350.2188,1083.9531 Q1350.0156,1083.7656 1349.9063,1083.25 Q1349.8594,1082.8906 1349.6719,1082.7031 Q1349.3438,1082.3281 1348.7344,1082.1094 Q1348.125,1081.8906 1347.5,1081.8906 Q1346.7344,1081.8906 1346.0938,1082.2188 Q1345.4688,1082.5469 1344.9688,1083.2969 Q1344.4844,1084.0469 1344.4844,1085.0781 L1344.4844,1086.1719 Q1344.4844,1087.4063 1345.375,1088.2344 Q1346.2656,1089.0469 1347.8594,1089.0469 Q1348.7969,1089.0469 1349.4531,1088.7969 Q1349.8438,1088.6406 1350.2656,1088.2031 Q1350.5313,1087.9375 1350.6719,1087.8594 Q1350.8281,1087.7813 1351.0313,1087.7813 Q1351.3594,1087.7813 1351.6094,1088.0469 Q1351.875,1088.2969 1351.875,1088.6406 Q1351.875,1088.9844 1351.5313,1089.3906 Q1351.0313,1089.9688 1350.2344,1090.2969 Q1349.1563,1090.75 1347.8594,1090.75 Q1346.3438,1090.75 1345.1406,1090.125 Q1344.1563,1089.625 1343.4688,1088.5625 Q1342.7813,1087.4844 1342.7813,1086.2031 L1342.7813,1085.0469 Q1342.7813,1083.7188 1343.3906,1082.5781 Q1344.0156,1081.4219 1345.1094,1080.8125 Q1346.2031,1080.1875 1347.4375,1080.1875 Q1348.1719,1080.1875 1348.8125,1080.3594 Q1349.4688,1080.5156 1350.0156,1080.875 Z " fill="#000000"/><text fill="#000000" font-family="sans-serif" font-size="14" lengthAdjust="spacing" textLength="31" x="1367.75" y="1090.7969">Tulip</text><line style="stroke:#181818;stroke-width:0.5;" x1="1299" x2="1435" y1="1101" y2="1101"/><rect fill="none" height="6" style="stroke:#C82930;stroke-width:1.0;" width="6" x="1306" y="1112.8105"/><text fill="#000000" font-family="sans-serif" font-size="14" lengthAdjust="spacing" textLength="80" x="1318" y="1120.1074">String shape</text><ellipse cx="1309" cy="1157.0527" fill="#84BE84" rx="3" ry="3" style="stroke:#038048;stroke-width:1.0;"/><text fill="#000000" font-family="sans-serif" font-size="14" lengthAdjust="spacing" textLength="112" x="1318" y="1161.3496">String getShape()</text><line style="stroke:#181818;stroke-width:1.0;" x1="1299" x2="1340" y1="1136.9316" y2="1136.9316"/><line style="stroke:#181818;stroke-width:1.0;" x1="1299" x2="1340" y1="1138.9316" y2="1138.9316"/><text fill="#000000" font-family="sans-serif" font-size="14" lengthAdjust="spacing" textLength="54" x="1340" y="1142.2285">Methods</text><line style="stroke:#181818;stroke-width:1.0;" x1="1394" x2="1435" y1="1136.9316" y2="1136.9316"/><line style="stroke:#181818;stroke-width:1.0;" x1="1394" x2="1435" y1="1138.9316" y2="1138.9316"/><line style="stroke:#181818;stroke-width:1.0;" x1="1299" x2="1435" y1="1168.8633" y2="1168.8633"/><ellipse cx="1309" cy="1183.6738" fill="#84BE84" rx="3" ry="3" style="stroke:#038048;stroke-width:1.0;"/><text fill="#000000" font-family="sans-serif" font-size="14" lengthAdjust="spacing" textLength="107" x="1318" y="1187.9707">boolean equals()</text><ellipse cx="1309" cy="1202.2949" fill="#84BE84" rx="3" ry="3" style="stroke:#038048;stroke-width:1.0;"/><text fill="#000000" font-family="sans-serif" font-size="14" lengthAdjust="spacing" textLength="94" x="1318" y="1206.5918">int hashCode()</text><ellipse cx="1309" cy="1220.916" fill="#84BE84" rx="3" ry="3" style="stroke:#038048;stroke-width:1.0;"/><text fill="#000000" font-family="sans-serif" font-size="14" lengthAdjust="spacing" textLength="100" x="1318" y="1225.2129">String toString()</text></g><!--class Accessory--><g id="elem_Accessory"><rect codeLine="154" fill="#F1F1F1" height="238.2109" id="Accessory" rx="2.5" ry="2.5" style="stroke:#181818;stroke-width:0.5;" width="147" x="1684.5" y="435.5"/><ellipse cx="1722" cy="451.5" fill="#A9DCDF" rx="11" ry="11" style="stroke:#181818;stroke-width:1.0;"/><path d="M1724.1875,453.2656 L1720.0469,453.2656 L1719.625,454.2969 L1720.0469,454.2969 Q1720.6563,454.2969 1720.9219,454.5313 Q1721.1875,454.7656 1721.1875,455.1563 Q1721.1875,455.5313 1720.9219,455.7656 Q1720.6563,456 1720.0469,456 L1717.75,456 Q1717.1406,456 1716.8906,455.7656 Q1716.625,455.5313 1716.625,455.1406 Q1716.625,454.7656 1716.9063,454.5313 Q1717.1719,454.2813 1717.7969,454.2969 L1720.4688,447.6406 L1719.3594,447.6406 Q1718.75,447.6406 1718.4844,447.4063 Q1718.2188,447.1719 1718.2188,446.7813 Q1718.2188,446.4063 1718.4844,446.1719 Q1718.75,445.9375 1719.3594,445.9375 L1723.0313,445.9375 L1726.4219,454.2969 Q1727.0156,454.2969 1727.2031,454.4375 Q1727.5938,454.7031 1727.5938,455.1563 Q1727.5938,455.5313 1727.3281,455.7656 Q1727.0781,456 1726.4688,456 L1724.1719,456 Q1723.5625,456 1723.2969,455.7656 Q1723.0313,455.5313 1723.0313,455.1406 Q1723.0313,454.7656 1723.2969,454.5313 Q1723.5625,454.2969 1724.1719,454.2969 L1724.5938,454.2969 L1724.1875,453.2656 Z M1723.4688,451.5625 L1722.1094,448.1875 L1720.7344,451.5625 L1723.4688,451.5625 Z " fill="#000000"/><text fill="#000000" font-family="sans-serif" font-size="14" font-style="italic" lengthAdjust="spacing" textLength="65" x="1741" y="457.2969">Accessory</text><line style="stroke:#181818;stroke-width:0.5;" x1="1685.5" x2="1830.5" y1="467.5" y2="467.5"/><polygon fill="none" points="1695.5,477.3105,1699.5,481.3105,1695.5,485.3105,1691.5,481.3105" style="stroke:#B38D22;stroke-width:1.0;"/><text fill="#000000" font-family="sans-serif" font-size="14" lengthAdjust="spacing" textLength="50" x="1704.5" y="486.6074">int price</text><polygon fill="none" points="1695.5,495.9316,1699.5,499.9316,1695.5,503.9316,1691.5,499.9316" style="stroke:#B38D22;stroke-width:1.0;"/><text fill="#000000" font-family="sans-serif" font-size="14" lengthAdjust="spacing" textLength="72" x="1704.5" y="505.2285">String color</text><polygon fill="none" points="1695.5,514.5527,1699.5,518.5527,1695.5,522.5527,1691.5,518.5527" style="stroke:#B38D22;stroke-width:1.0;"/><text fill="#000000" font-family="sans-serif" font-size="14" lengthAdjust="spacing" textLength="91" x="1704.5" y="523.8496">String material</text><ellipse cx="1695.5" cy="560.7949" fill="#84BE84" rx="3" ry="3" style="stroke:#038048;stroke-width:1.0;"/><text fill="#000000" font-family="sans-serif" font-size="14" lengthAdjust="spacing" textLength="81" x="1704.5" y="565.0918">int getPrice()</text><ellipse cx="1695.5" cy="579.416" fill="#84BE84" rx="3" ry="3" style="stroke:#038048;stroke-width:1.0;"/><text fill="#000000" font-family="sans-serif" font-size="14" lengthAdjust="spacing" textLength="105" x="1704.5" y="583.7129">String getColor()</text><ellipse cx="1695.5" cy="598.0371" fill="#84BE84" rx="3" ry="3" style="stroke:#038048;stroke-width:1.0;"/><text fill="#000000" font-family="sans-serif" font-size="14" lengthAdjust="spacing" textLength="121" x="1704.5" y="602.334">String getMaterial()</text><line style="stroke:#181818;stroke-width:1.0;" x1="1685.5" x2="1731" y1="540.6738" y2="540.6738"/><line style="stroke:#181818;stroke-width:1.0;" x1="1685.5" x2="1731" y1="542.6738" y2="542.6738"/><text fill="#000000" font-family="sans-serif" font-size="14" lengthAdjust="spacing" textLength="54" x="1731" y="545.9707">Methods</text><line style="stroke:#181818;stroke-width:1.0;" x1="1785" x2="1830.5" y1="540.6738" y2="540.6738"/><line style="stroke:#181818;stroke-width:1.0;" x1="1785" x2="1830.5" y1="542.6738" y2="542.6738"/><line style="stroke:#181818;stroke-width:1.0;" x1="1685.5" x2="1830.5" y1="609.8477" y2="609.8477"/><ellipse cx="1695.5" cy="624.6582" fill="#84BE84" rx="3" ry="3" style="stroke:#038048;stroke-width:1.0;"/><text fill="#000000" font-family="sans-serif" font-size="14" lengthAdjust="spacing" textLength="107" x="1704.5" y="628.9551">boolean equals()</text><ellipse cx="1695.5" cy="643.2793" fill="#84BE84" rx="3" ry="3" style="stroke:#038048;stroke-width:1.0;"/><text fill="#000000" font-family="sans-serif" font-size="14" lengthAdjust="spacing" textLength="94" x="1704.5" y="647.5762">int hashCode()</text><ellipse cx="1695.5" cy="661.9004" fill="#84BE84" rx="3" ry="3" style="stroke:#038048;stroke-width:1.0;"/><text fill="#000000" font-family="sans-serif" font-size="14" lengthAdjust="spacing" textLength="100" x="1704.5" y="666.1973">String toString()</text></g><!--class Basket--><g id="elem_Basket"><rect codeLine="168" fill="#F1F1F1" height="163.7266" id="Basket" rx="2.5" ry="2.5" style="stroke:#181818;stroke-width:0.5;" width="133" x="1516.5" y="789.5"/><ellipse cx="1557.6" cy="805.5" fill="#ADD1B2" rx="11" ry="11" style="stroke:#181818;stroke-width:1.0;"/><path d="M1560.3656,801.375 Q1560.5219,801.1563 1560.7094,801.0469 Q1560.8969,800.9375 1561.1156,800.9375 Q1561.4906,800.9375 1561.725,801.2031 Q1561.9594,801.4531 1561.9594,802.0625 L1561.9594,803.5156 Q1561.9594,804.125 1561.725,804.3906 Q1561.4906,804.6563 1561.1156,804.6563 Q1560.7719,804.6563 1560.5688,804.4531 Q1560.3656,804.2656 1560.2563,803.75 Q1560.2094,803.3906 1560.0219,803.2031 Q1559.6938,802.8281 1559.0844,802.6094 Q1558.475,802.3906 1557.85,802.3906 Q1557.0844,802.3906 1556.4438,802.7188 Q1555.8188,803.0469 1555.3188,803.7969 Q1554.8344,804.5469 1554.8344,805.5781 L1554.8344,806.6719 Q1554.8344,807.9063 1555.725,808.7344 Q1556.6156,809.5469 1558.2094,809.5469 Q1559.1469,809.5469 1559.8031,809.2969 Q1560.1938,809.1406 1560.6156,808.7031 Q1560.8813,808.4375 1561.0219,808.3594 Q1561.1781,808.2813 1561.3813,808.2813 Q1561.7094,808.2813 1561.9594,808.5469 Q1562.225,808.7969 1562.225,809.1406 Q1562.225,809.4844 1561.8813,809.8906 Q1561.3813,810.4688 1560.5844,810.7969 Q1559.5063,811.25 1558.2094,811.25 Q1556.6938,811.25 1555.4906,810.625 Q1554.5063,810.125 1553.8188,809.0625 Q1553.1313,807.9844 1553.1313,806.7031 L1553.1313,805.5469 Q1553.1313,804.2188 1553.7406,803.0781 Q1554.3656,801.9219 1555.4594,801.3125 Q1556.5531,800.6875 1557.7875,800.6875 Q1558.5219,800.6875 1559.1625,800.8594 Q1559.8188,801.0156 1560.3656,801.375 Z " fill="#000000"/><text fill="#000000" font-family="sans-serif" font-size="14" lengthAdjust="spacing" textLength="43" x="1577.4" y="811.2969">Basket</text><line style="stroke:#181818;stroke-width:0.5;" x1="1517.5" x2="1648.5" y1="821.5" y2="821.5"/><rect fill="none" height="6" style="stroke:#C82930;stroke-width:1.0;" width="6" x="1524.5" y="833.3105"/><text fill="#000000" font-family="sans-serif" font-size="14" lengthAdjust="spacing" textLength="65" x="1536.5" y="840.6074">String size</text><ellipse cx="1527.5" cy="877.5527" fill="#84BE84" rx="3" ry="3" style="stroke:#038048;stroke-width:1.0;"/><text fill="#000000" font-family="sans-serif" font-size="14" lengthAdjust="spacing" textLength="97" x="1536.5" y="881.8496">String getSize()</text><line style="stroke:#181818;stroke-width:1.0;" x1="1517.5" x2="1556" y1="857.4316" y2="857.4316"/><line style="stroke:#181818;stroke-width:1.0;" x1="1517.5" x2="1556" y1="859.4316" y2="859.4316"/><text fill="#000000" font-family="sans-serif" font-size="14" lengthAdjust="spacing" textLength="54" x="1556" y="862.7285">Methods</text><line style="stroke:#181818;stroke-width:1.0;" x1="1610" x2="1648.5" y1="857.4316" y2="857.4316"/><line style="stroke:#181818;stroke-width:1.0;" x1="1610" x2="1648.5" y1="859.4316" y2="859.4316"/><line style="stroke:#181818;stroke-width:1.0;" x1="1517.5" x2="1648.5" y1="889.3633" y2="889.3633"/><ellipse cx="1527.5" cy="904.1738" fill="#84BE84" rx="3" ry="3" style="stroke:#038048;stroke-width:1.0;"/><text fill="#000000" font-family="sans-serif" font-size="14" lengthAdjust="spacing" textLength="107" x="1536.5" y="908.4707">boolean equals()</text><ellipse cx="1527.5" cy="922.7949" fill="#84BE84" rx="3" ry="3" style="stroke:#038048;stroke-width:1.0;"/><text fill="#000000" font-family="sans-serif" font-size="14" lengthAdjust="spacing" textLength="94" x="1536.5" y="927.0918">int hashCode()</text><ellipse cx="1527.5" cy="941.416" fill="#84BE84" rx="3" ry="3" style="stroke:#038048;stroke-width:1.0;"/><text fill="#000000" font-family="sans-serif" font-size="14" lengthAdjust="spacing" textLength="100" x="1536.5" y="945.7129">String toString()</text></g><!--class Postcard--><g id="elem_Postcard"><rect codeLine="178" fill="#F1F1F1" height="163.7266" id="Postcard" rx="2.5" ry="2.5" style="stroke:#181818;stroke-width:0.5;" width="147" x="1684.5" y="789.5"/><ellipse cx="1726.05" cy="805.5" fill="#ADD1B2" rx="11" ry="11" style="stroke:#181818;stroke-width:1.0;"/><path d="M1728.8156,801.375 Q1728.9719,801.1563 1729.1594,801.0469 Q1729.3469,800.9375 1729.5656,800.9375 Q1729.9406,800.9375 1730.175,801.2031 Q1730.4094,801.4531 1730.4094,802.0625 L1730.4094,803.5156 Q1730.4094,804.125 1730.175,804.3906 Q1729.9406,804.6563 1729.5656,804.6563 Q1729.2219,804.6563 1729.0188,804.4531 Q1728.8156,804.2656 1728.7063,803.75 Q1728.6594,803.3906 1728.4719,803.2031 Q1728.1438,802.8281 1727.5344,802.6094 Q1726.925,802.3906 1726.3,802.3906 Q1725.5344,802.3906 1724.8938,802.7188 Q1724.2688,803.0469 1723.7688,803.7969 Q1723.2844,804.5469 1723.2844,805.5781 L1723.2844,806.6719 Q1723.2844,807.9063 1724.175,808.7344 Q1725.0656,809.5469 1726.6594,809.5469 Q1727.5969,809.5469 1728.2531,809.2969 Q1728.6438,809.1406 1729.0656,808.7031 Q1729.3313,808.4375 1729.4719,808.3594 Q1729.6281,808.2813 1729.8313,808.2813 Q1730.1594,808.2813 1730.4094,808.5469 Q1730.675,808.7969 1730.675,809.1406 Q1730.675,809.4844 1730.3313,809.8906 Q1729.8313,810.4688 1729.0344,810.7969 Q1727.9563,811.25 1726.6594,811.25 Q1725.1438,811.25 1723.9406,810.625 Q1722.9563,810.125 1722.2688,809.0625 Q1721.5813,807.9844 1721.5813,806.7031 L1721.5813,805.5469 Q1721.5813,804.2188 1722.1906,803.0781 Q1722.8156,801.9219 1723.9094,801.3125 Q1725.0031,800.6875 1726.2375,800.6875 Q1726.9719,800.6875 1727.6125,800.8594 Q1728.2688,801.0156 1728.8156,801.375 Z " fill="#000000"/><text fill="#000000" font-family="sans-serif" font-size="14" lengthAdjust="spacing" textLength="56" x="1745.95" y="811.2969">Postcard</text><line style="stroke:#181818;stroke-width:0.5;" x1="1685.5" x2="1830.5" y1="821.5" y2="821.5"/><rect fill="none" height="6" style="stroke:#C82930;stroke-width:1.0;" width="6" x="1692.5" y="833.3105"/><text fill="#000000" font-family="sans-serif" font-size="14" lengthAdjust="spacing" textLength="88" x="1704.5" y="840.6074">String content</text><ellipse cx="1695.5" cy="877.5527" fill="#84BE84" rx="3" ry="3" style="stroke:#038048;stroke-width:1.0;"/><text fill="#000000" font-family="sans-serif" font-size="14" lengthAdjust="spacing" textLength="121" x="1704.5" y="881.8496">String getContent()</text><line style="stroke:#181818;stroke-width:1.0;" x1="1685.5" x2="1731" y1="857.4316" y2="857.4316"/><line style="stroke:#181818;stroke-width:1.0;" x1="1685.5" x2="1731" y1="859.4316" y2="859.4316"/><text fill="#000000" font-family="sans-serif" font-size="14" lengthAdjust="spacing" textLength="54" x="1731" y="862.7285">Methods</text><line style="stroke:#181818;stroke-width:1.0;" x1="1785" x2="1830.5" y1="857.4316" y2="857.4316"/><line style="stroke:#181818;stroke-width:1.0;" x1="1785" x2="1830.5" y1="859.4316" y2="859.4316"/><line style="stroke:#181818;stroke-width:1.0;" x1="1685.5" x2="1830.5" y1="889.3633" y2="889.3633"/><ellipse cx="1695.5" cy="904.1738" fill="#84BE84" rx="3" ry="3" style="stroke:#038048;stroke-width:1.0;"/><text fill="#000000" font-family="sans-serif" font-size="14" lengthAdjust="spacing" textLength="107" x="1704.5" y="908.4707">boolean equals()</text><ellipse cx="1695.5" cy="922.7949" fill="#84BE84" rx="3" ry="3" style="stroke:#038048;stroke-width:1.0;"/><text fill="#000000" font-family="sans-serif" font-size="14" lengthAdjust="spacing" textLength="94" x="1704.5" y="927.0918">int hashCode()</text><ellipse cx="1695.5" cy="941.416" fill="#84BE84" rx="3" ry="3" style="stroke:#038048;stroke-width:1.0;"/><text fill="#000000" font-family="sans-serif" font-size="14" lengthAdjust="spacing" textLength="100" x="1704.5" y="945.7129">String toString()</text></g><!--class Ribbon--><g id="elem_Ribbon"><rect codeLine="188" fill="#F1F1F1" height="137.1055" id="Ribbon" rx="2.5" ry="2.5" style="stroke:#181818;stroke-width:0.5;" width="133" x="1866.5" y="803"/><ellipse cx="1906.7" cy="819" fill="#ADD1B2" rx="11" ry="11" style="stroke:#181818;stroke-width:1.0;"/><path d="M1909.4656,814.875 Q1909.6219,814.6563 1909.8094,814.5469 Q1909.9969,814.4375 1910.2156,814.4375 Q1910.5906,814.4375 1910.825,814.7031 Q1911.0594,814.9531 1911.0594,815.5625 L1911.0594,817.0156 Q1911.0594,817.625 1910.825,817.8906 Q1910.5906,818.1563 1910.2156,818.1563 Q1909.8719,818.1563 1909.6688,817.9531 Q1909.4656,817.7656 1909.3563,817.25 Q1909.3094,816.8906 1909.1219,816.7031 Q1908.7938,816.3281 1908.1844,816.1094 Q1907.575,815.8906 1906.95,815.8906 Q1906.1844,815.8906 1905.5438,816.2188 Q1904.9188,816.5469 1904.4188,817.2969 Q1903.9344,818.0469 1903.9344,819.0781 L1903.9344,820.1719 Q1903.9344,821.4063 1904.825,822.2344 Q1905.7156,823.0469 1907.3094,823.0469 Q1908.2469,823.0469 1908.9031,822.7969 Q1909.2938,822.6406 1909.7156,822.2031 Q1909.9813,821.9375 1910.1219,821.8594 Q1910.2781,821.7813 1910.4813,821.7813 Q1910.8094,821.7813 1911.0594,822.0469 Q1911.325,822.2969 1911.325,822.6406 Q1911.325,822.9844 1910.9813,823.3906 Q1910.4813,823.9688 1909.6844,824.2969 Q1908.6063,824.75 1907.3094,824.75 Q1905.7938,824.75 1904.5906,824.125 Q1903.6063,823.625 1902.9188,822.5625 Q1902.2313,821.4844 1902.2313,820.2031 L1902.2313,819.0469 Q1902.2313,817.7188 1902.8406,816.5781 Q1903.4656,815.4219 1904.5594,814.8125 Q1905.6531,814.1875 1906.8875,814.1875 Q1907.6219,814.1875 1908.2625,814.3594 Q1908.9188,814.5156 1909.4656,814.875 Z " fill="#000000"/><text fill="#000000" font-family="sans-serif" font-size="14" lengthAdjust="spacing" textLength="45" x="1926.3" y="824.7969">Ribbon</text><line style="stroke:#181818;stroke-width:0.5;" x1="1867.5" x2="1998.5" y1="835" y2="835"/><rect fill="none" height="6" style="stroke:#C82930;stroke-width:1.0;" width="6" x="1874.5" y="846.8105"/><text fill="#000000" font-family="sans-serif" font-size="14" lengthAdjust="spacing" textLength="58" x="1886.5" y="854.1074">int length</text><ellipse cx="1877.5" cy="891.0527" fill="#84BE84" rx="3" ry="3" style="stroke:#038048;stroke-width:1.0;"/><text fill="#000000" font-family="sans-serif" font-size="14" lengthAdjust="spacing" textLength="107" x="1886.5" y="895.3496">boolean equals()</text><ellipse cx="1877.5" cy="909.6738" fill="#84BE84" rx="3" ry="3" style="stroke:#038048;stroke-width:1.0;"/><text fill="#000000" font-family="sans-serif" font-size="14" lengthAdjust="spacing" textLength="94" x="1886.5" y="913.9707">int hashCode()</text><ellipse cx="1877.5" cy="928.2949" fill="#84BE84" rx="3" ry="3" style="stroke:#038048;stroke-width:1.0;"/><text fill="#000000" font-family="sans-serif" font-size="14" lengthAdjust="spacing" textLength="100" x="1886.5" y="932.5918">String toString()</text><line style="stroke:#181818;stroke-width:1.0;" x1="1867.5" x2="1906" y1="870.9316" y2="870.9316"/><line style="stroke:#181818;stroke-width:1.0;" x1="1867.5" x2="1906" y1="872.9316" y2="872.9316"/><text fill="#000000" font-family="sans-serif" font-size="14" lengthAdjust="spacing" textLength="54" x="1906" y="876.2285">Methods</text><line style="stroke:#181818;stroke-width:1.0;" x1="1960" x2="1998.5" y1="870.9316" y2="870.9316"/><line style="stroke:#181818;stroke-width:1.0;" x1="1960" x2="1998.5" y1="872.9316" y2="872.9316"/></g><!--class WrappingPaper--><g id="elem_WrappingPaper"><rect codeLine="196" fill="#F1F1F1" height="200.9688" id="WrappingPaper" rx="2.5" ry="2.5" style="stroke:#181818;stroke-width:0.5;" width="133" x="2034.5" y="771"/><ellipse cx="2050.4" cy="787" fill="#ADD1B2" rx="11" ry="11" style="stroke:#181818;stroke-width:1.0;"/><path d="M2053.1656,782.875 Q2053.3219,782.6563 2053.5094,782.5469 Q2053.6969,782.4375 2053.9156,782.4375 Q2054.2906,782.4375 2054.525,782.7031 Q2054.7594,782.9531 2054.7594,783.5625 L2054.7594,785.0156 Q2054.7594,785.625 2054.525,785.8906 Q2054.2906,786.1563 2053.9156,786.1563 Q2053.5719,786.1563 2053.3688,785.9531 Q2053.1656,785.7656 2053.0563,785.25 Q2053.0094,784.8906 2052.8219,784.7031 Q2052.4938,784.3281 2051.8844,784.1094 Q2051.275,783.8906 2050.65,783.8906 Q2049.8844,783.8906 2049.2438,784.2188 Q2048.6188,784.5469 2048.1188,785.2969 Q2047.6344,786.0469 2047.6344,787.0781 L2047.6344,788.1719 Q2047.6344,789.4063 2048.525,790.2344 Q2049.4156,791.0469 2051.0094,791.0469 Q2051.9469,791.0469 2052.6031,790.7969 Q2052.9938,790.6406 2053.4156,790.2031 Q2053.6813,789.9375 2053.8219,789.8594 Q2053.9781,789.7813 2054.1813,789.7813 Q2054.5094,789.7813 2054.7594,790.0469 Q2055.025,790.2969 2055.025,790.6406 Q2055.025,790.9844 2054.6813,791.3906 Q2054.1813,791.9688 2053.3844,792.2969 Q2052.3063,792.75 2051.0094,792.75 Q2049.4938,792.75 2048.2906,792.125 Q2047.3063,791.625 2046.6188,790.5625 Q2045.9313,789.4844 2045.9313,788.2031 L2045.9313,787.0469 Q2045.9313,785.7188 2046.5406,784.5781 Q2047.1656,783.4219 2048.2594,782.8125 Q2049.3531,782.1875 2050.5875,782.1875 Q2051.3219,782.1875 2051.9625,782.3594 Q2052.6188,782.5156 2053.1656,782.875 Z " fill="#000000"/><text fill="#000000" font-family="sans-serif" font-size="14" lengthAdjust="spacing" textLength="99" x="2064.6" y="792.7969">WrappingPaper</text><line style="stroke:#181818;stroke-width:0.5;" x1="2035.5" x2="2166.5" y1="803" y2="803"/><rect fill="none" height="6" style="stroke:#C82930;stroke-width:1.0;" width="6" x="2042.5" y="814.8105"/><text fill="#000000" font-family="sans-serif" font-size="14" lengthAdjust="spacing" textLength="51" x="2054.5" y="822.1074">int width</text><rect fill="none" height="6" style="stroke:#C82930;stroke-width:1.0;" width="6" x="2042.5" y="833.4316"/><text fill="#000000" font-family="sans-serif" font-size="14" lengthAdjust="spacing" textLength="58" x="2054.5" y="840.7285">int length</text><ellipse cx="2045.5" cy="877.6738" fill="#84BE84" rx="3" ry="3" style="stroke:#038048;stroke-width:1.0;"/><text fill="#000000" font-family="sans-serif" font-size="14" lengthAdjust="spacing" textLength="93" x="2054.5" y="881.9707">int getLength()</text><ellipse cx="2045.5" cy="896.2949" fill="#84BE84" rx="3" ry="3" style="stroke:#038048;stroke-width:1.0;"/><text fill="#000000" font-family="sans-serif" font-size="14" lengthAdjust="spacing" textLength="85" x="2054.5" y="900.5918">int getWidth()</text><line style="stroke:#181818;stroke-width:1.0;" x1="2035.5" x2="2074" y1="857.5527" y2="857.5527"/><line style="stroke:#181818;stroke-width:1.0;" x1="2035.5" x2="2074" y1="859.5527" y2="859.5527"/><text fill="#000000" font-family="sans-serif" font-size="14" lengthAdjust="spacing" textLength="54" x="2074" y="862.8496">Methods</text><line style="stroke:#181818;stroke-width:1.0;" x1="2128" x2="2166.5" y1="857.5527" y2="857.5527"/><line style="stroke:#181818;stroke-width:1.0;" x1="2128" x2="2166.5" y1="859.5527" y2="859.5527"/><line style="stroke:#181818;stroke-width:1.0;" x1="2035.5" x2="2166.5" y1="908.1055" y2="908.1055"/><ellipse cx="2045.5" cy="922.916" fill="#84BE84" rx="3" ry="3" style="stroke:#038048;stroke-width:1.0;"/><text fill="#000000" font-family="sans-serif" font-size="14" lengthAdjust="spacing" textLength="107" x="2054.5" y="927.2129">boolean equals()</text><ellipse cx="2045.5" cy="941.5371" fill="#84BE84" rx="3" ry="3" style="stroke:#038048;stroke-width:1.0;"/><text fill="#000000" font-family="sans-serif" font-size="14" lengthAdjust="spacing" textLength="94" x="2054.5" y="945.834">int hashCode()</text><ellipse cx="2045.5" cy="960.1582" fill="#84BE84" rx="3" ry="3" style="stroke:#038048;stroke-width:1.0;"/><text fill="#000000" font-family="sans-serif" font-size="14" lengthAdjust="spacing" textLength="100" x="2054.5" y="964.4551">String toString()</text></g><!--class MenuBar--><g id="elem_MenuBar"><rect codeLine="215" fill="#F1F1F1" height="103.8633" id="MenuBar" rx="2.5" ry="2.5" style="stroke:#181818;stroke-width:0.5;" width="89" x="1980.5" y="120.5"/><ellipse cx="1995.5" cy="136.5" fill="#EB937F" rx="11" ry="11" style="stroke:#181818;stroke-width:1.0;"/><path d="M1994.3594,137.2969 L1994.3594,139.7969 L1998.6875,139.7969 L1998.6875,138.875 Q1998.6875,138.2656 1998.9219,138 Q1999.1719,137.7344 1999.5469,137.7344 Q1999.9219,137.7344 2000.1563,138 Q2000.3906,138.2656 2000.3906,138.875 L2000.3906,141.5 L1992.3906,141.5 Q1991.7656,141.5 1991.5,141.2656 Q1991.25,141.0313 1991.25,140.6406 Q1991.25,140.2656 1991.5156,140.0313 Q1991.7813,139.7969 1992.3906,139.7969 L1992.6563,139.7969 L1992.6563,133.1406 L1992.3906,133.1406 Q1991.7656,133.1406 1991.5,132.9063 Q1991.25,132.6719 1991.25,132.2813 Q1991.25,131.9063 1991.5,131.6719 Q1991.7656,131.4375 1992.3906,131.4375 L2000.0156,131.4375 L2000.0156,134.0313 Q2000.0156,134.6406 1999.7813,134.9063 Q1999.5625,135.1563 1999.1719,135.1563 Q1998.7969,135.1563 1998.5625,134.9063 Q1998.3281,134.6406 1998.3281,134.0313 L1998.3281,133.1406 L1994.3594,133.1406 L1994.3594,135.5938 L1995.8438,135.5938 Q1995.8438,134.9375 1995.9688,134.75 Q1996.2344,134.3438 1996.7031,134.3438 Q1997.0781,134.3438 1997.3125,134.6094 Q1997.5469,134.8594 1997.5469,135.4688 L1997.5469,137.4375 Q1997.5469,137.9844 1997.4219,138.1719 Q1997.1563,138.5625 1996.7031,138.5625 Q1996.2344,138.5625 1995.9688,138.1563 Q1995.8438,137.9688 1995.8438,137.2969 L1994.3594,137.2969 Z " fill="#000000"/><text fill="#000000" font-family="sans-serif" font-size="14" lengthAdjust="spacing" textLength="57" x="2009.5" y="142.2969">MenuBar</text><line style="stroke:#181818;stroke-width:0.5;" x1="1981.5" x2="2068.5" y1="152.5" y2="152.5"/><text fill="#000000" font-family="sans-serif" font-size="14" lengthAdjust="spacing" textLength="39" x="1986.5" y="171.6074">SORT</text><text fill="#000000" font-family="sans-serif" font-size="14" lengthAdjust="spacing" textLength="31" x="1986.5" y="190.2285">FIND</text><text fill="#000000" font-family="sans-serif" font-size="14" lengthAdjust="spacing" textLength="29" x="1986.5" y="208.8496">EXIT</text><line style="stroke:#181818;stroke-width:0.5;" x1="1981.5" x2="2068.5" y1="216.3633" y2="216.3633"/></g><!--class TaskMain--><g id="elem_TaskMain"><rect codeLine="222" fill="#F1F1F1" height="118.4844" id="TaskMain" rx="2.5" ry="2.5" style="stroke:#181818;stroke-width:0.5;" width="188" x="672" y="113.5"/><ellipse cx="731.25" cy="129.5" fill="#ADD1B2" rx="11" ry="11" style="stroke:#181818;stroke-width:1.0;"/><path d="M734.0156,125.375 Q734.1719,125.1563 734.3594,125.0469 Q734.5469,124.9375 734.7656,124.9375 Q735.1406,124.9375 735.375,125.2031 Q735.6094,125.4531 735.6094,126.0625 L735.6094,127.5156 Q735.6094,128.125 735.375,128.3906 Q735.1406,128.6563 734.7656,128.6563 Q734.4219,128.6563 734.2188,128.4531 Q734.0156,128.2656 733.9063,127.75 Q733.8594,127.3906 733.6719,127.2031 Q733.3438,126.8281 732.7344,126.6094 Q732.125,126.3906 731.5,126.3906 Q730.7344,126.3906 730.0938,126.7188 Q729.4688,127.0469 728.9688,127.7969 Q728.4844,128.5469 728.4844,129.5781 L728.4844,130.6719 Q728.4844,131.9063 729.375,132.7344 Q730.2656,133.5469 731.8594,133.5469 Q732.7969,133.5469 733.4531,133.2969 Q733.8438,133.1406 734.2656,132.7031 Q734.5313,132.4375 734.6719,132.3594 Q734.8281,132.2813 735.0313,132.2813 Q735.3594,132.2813 735.6094,132.5469 Q735.875,132.7969 735.875,133.1406 Q735.875,133.4844 735.5313,133.8906 Q735.0313,134.4688 734.2344,134.7969 Q733.1563,135.25 731.8594,135.25 Q730.3438,135.25 729.1406,134.625 Q728.1563,134.125 727.4688,133.0625 Q726.7813,131.9844 726.7813,130.7031 L726.7813,129.5469 Q726.7813,128.2188 727.3906,127.0781 Q728.0156,125.9219 729.1094,125.3125 Q730.2031,124.6875 731.4375,124.6875 Q732.1719,124.6875 732.8125,124.8594 Q733.4688,125.0156 734.0156,125.375 Z " fill="#000000"/><text fill="#000000" font-family="sans-serif" font-size="14" lengthAdjust="spacing" textLength="61" x="751.75" y="135.2969">TaskMain</text><line style="stroke:#181818;stroke-width:0.5;" x1="673" x2="859" y1="145.5" y2="145.5"/><ellipse cx="683" cy="182.9316" fill="#84BE84" rx="3" ry="3" style="stroke:#038048;stroke-width:1.0;"/><text fill="#000000" font-family="sans-serif" font-size="14" lengthAdjust="spacing" text-decoration="underline" textLength="70" x="692" y="187.2285">void main()</text><rect fill="#F24D5C" height="6" style="stroke:#C82930;stroke-width:1.0;" width="6" x="680" y="198.5527"/><text fill="#000000" font-family="sans-serif" font-size="14" lengthAdjust="spacing" text-decoration="underline" textLength="128" x="692" y="205.8496">String printFlowers()</text><rect fill="#F24D5C" height="6" style="stroke:#C82930;stroke-width:1.0;" width="6" x="680" y="217.1738"/><text fill="#000000" font-family="sans-serif" font-size="14" lengthAdjust="spacing" text-decoration="underline" textLength="162" x="692" y="224.4707">String printFoundFlower()</text><line style="stroke:#181818;stroke-width:1.0;" x1="673" x2="739" y1="162.8105" y2="162.8105"/><line style="stroke:#181818;stroke-width:1.0;" x1="673" x2="739" y1="164.8105" y2="164.8105"/><text fill="#000000" font-family="sans-serif" font-size="14" lengthAdjust="spacing" textLength="54" x="739" y="168.1074">Methods</text><line style="stroke:#181818;stroke-width:1.0;" x1="793" x2="859" y1="162.8105" y2="162.8105"/><line style="stroke:#181818;stroke-width:1.0;" x1="793" x2="859" y1="164.8105" y2="164.8105"/></g><!--class Bouquet--><g id="elem_Bouquet"><rect codeLine="229" fill="#F1F1F1" height="331.3164" id="Bouquet" rx="2.5" ry="2.5" style="stroke:#181818;stroke-width:0.5;" width="273" x="895.5" y="7"/><ellipse cx="1001.25" cy="23" fill="#ADD1B2" rx="11" ry="11" style="stroke:#181818;stroke-width:1.0;"/><path d="M1004.0156,18.875 Q1004.1719,18.6563 1004.3594,18.5469 Q1004.5469,18.4375 1004.7656,18.4375 Q1005.1406,18.4375 1005.375,18.7031 Q1005.6094,18.9531 1005.6094,19.5625 L1005.6094,21.0156 Q1005.6094,21.625 1005.375,21.8906 Q1005.1406,22.1563 1004.7656,22.1563 Q1004.4219,22.1563 1004.2188,21.9531 Q1004.0156,21.7656 1003.9063,21.25 Q1003.8594,20.8906 1003.6719,20.7031 Q1003.3438,20.3281 1002.7344,20.1094 Q1002.125,19.8906 1001.5,19.8906 Q1000.7344,19.8906 1000.0938,20.2188 Q999.4688,20.5469 998.9688,21.2969 Q998.4844,22.0469 998.4844,23.0781 L998.4844,24.1719 Q998.4844,25.4063 999.375,26.2344 Q1000.2656,27.0469 1001.8594,27.0469 Q1002.7969,27.0469 1003.4531,26.7969 Q1003.8438,26.6406 1004.2656,26.2031 Q1004.5313,25.9375 1004.6719,25.8594 Q1004.8281,25.7813 1005.0313,25.7813 Q1005.3594,25.7813 1005.6094,26.0469 Q1005.875,26.2969 1005.875,26.6406 Q1005.875,26.9844 1005.5313,27.3906 Q1005.0313,27.9688 1004.2344,28.2969 Q1003.1563,28.75 1001.8594,28.75 Q1000.3438,28.75 999.1406,28.125 Q998.1563,27.625 997.4688,26.5625 Q996.7813,25.4844 996.7813,24.2031 L996.7813,23.0469 Q996.7813,21.7188 997.3906,20.5781 Q998.0156,19.4219 999.1094,18.8125 Q1000.2031,18.1875 1001.4375,18.1875 Q1002.1719,18.1875 1002.8125,18.3594 Q1003.4688,18.5156 1004.0156,18.875 Z " fill="#000000"/><text fill="#000000" font-family="sans-serif" font-size="14" lengthAdjust="spacing" textLength="53" x="1021.75" y="28.7969">Bouquet</text><line style="stroke:#181818;stroke-width:0.5;" x1="896.5" x2="1167.5" y1="39" y2="39"/><rect fill="none" height="6" style="stroke:#C82930;stroke-width:1.0;" width="6" x="903.5" y="50.8105"/><text fill="#000000" font-family="sans-serif" font-size="14" lengthAdjust="spacing" textLength="50" x="915.5" y="58.1074">int price</text><rect fill="none" height="6" style="stroke:#C82930;stroke-width:1.0;" width="6" x="903.5" y="69.4316"/><text fill="#000000" font-family="sans-serif" font-size="14" lengthAdjust="spacing" textLength="162" x="915.5" y="76.7285">ArrayList&lt;Flower&gt; flowers</text><rect fill="none" height="6" style="stroke:#C82930;stroke-width:1.0;" width="6" x="903.5" y="88.0527"/><text fill="#000000" font-family="sans-serif" font-size="14" lengthAdjust="spacing" textLength="216" x="915.5" y="95.3496">ArrayList&lt;Accessory&gt; accessories</text><ellipse cx="906.5" cy="132.2949" fill="#84BE84" rx="3" ry="3" style="stroke:#038048;stroke-width:1.0;"/><text fill="#000000" font-family="sans-serif" font-size="14" lengthAdjust="spacing" textLength="108" x="915.5" y="136.5918">void setFlowers()</text><ellipse cx="906.5" cy="150.916" fill="#84BE84" rx="3" ry="3" style="stroke:#038048;stroke-width:1.0;"/><text fill="#000000" font-family="sans-serif" font-size="14" lengthAdjust="spacing" textLength="197" x="915.5" y="155.2129">ArrayList&lt;Flower&gt; getFlowers()</text><ellipse cx="906.5" cy="169.5371" fill="#84BE84" rx="3" ry="3" style="stroke:#038048;stroke-width:1.0;"/><text fill="#000000" font-family="sans-serif" font-size="14" lengthAdjust="spacing" textLength="135" x="915.5" y="173.834">void setAccessories()</text><ellipse cx="906.5" cy="188.1582" fill="#84BE84" rx="3" ry="3" style="stroke:#038048;stroke-width:1.0;"/><text fill="#000000" font-family="sans-serif" font-size="14" lengthAdjust="spacing" textLength="247" x="915.5" y="192.4551">ArrayList&lt;Accessory&gt; getAccessories()</text><rect fill="#F24D5C" height="6" style="stroke:#C82930;stroke-width:1.0;" width="6" x="903.5" y="203.7793"/><text fill="#000000" font-family="sans-serif" font-size="14" lengthAdjust="spacing" text-decoration="underline" textLength="140" x="915.5" y="211.0762">int calculateFullPrice()</text><rect fill="#F24D5C" height="6" style="stroke:#C82930;stroke-width:1.0;" width="6" x="903.5" y="222.4004"/><text fill="#000000" font-family="sans-serif" font-size="14" lengthAdjust="spacing" text-decoration="underline" textLength="159" x="915.5" y="229.6973">int calculateFlowerPrice()</text><rect fill="#F24D5C" height="6" style="stroke:#C82930;stroke-width:1.0;" width="6" x="903.5" y="241.0215"/><text fill="#000000" font-family="sans-serif" font-size="14" lengthAdjust="spacing" text-decoration="underline" textLength="182" x="915.5" y="248.3184">int calculateAccessoryPrice()</text><ellipse cx="906.5" cy="262.6426" fill="#84BE84" rx="3" ry="3" style="stroke:#038048;stroke-width:1.0;"/><text fill="#000000" font-family="sans-serif" font-size="14" lengthAdjust="spacing" textLength="196" x="915.5" y="266.9395">void sortFlowersByFreshness()</text><line style="stroke:#181818;stroke-width:1.0;" x1="896.5" x2="1005" y1="112.1738" y2="112.1738"/><line style="stroke:#181818;stroke-width:1.0;" x1="896.5" x2="1005" y1="114.1738" y2="114.1738"/><text fill="#000000" font-family="sans-serif" font-size="14" lengthAdjust="spacing" textLength="54" x="1005" y="117.4707">Methods</text><line style="stroke:#181818;stroke-width:1.0;" x1="1059" x2="1167.5" y1="112.1738" y2="112.1738"/><line style="stroke:#181818;stroke-width:1.0;" x1="1059" x2="1167.5" y1="114.1738" y2="114.1738"/><line style="stroke:#181818;stroke-width:1.0;" x1="896.5" x2="1167.5" y1="274.4531" y2="274.4531"/><ellipse cx="906.5" cy="289.2637" fill="#84BE84" rx="3" ry="3" style="stroke:#038048;stroke-width:1.0;"/><text fill="#000000" font-family="sans-serif" font-size="14" lengthAdjust="spacing" textLength="107" x="915.5" y="293.5605">boolean equals()</text><ellipse cx="906.5" cy="307.8848" fill="#84BE84" rx="3" ry="3" style="stroke:#038048;stroke-width:1.0;"/><text fill="#000000" font-family="sans-serif" font-size="14" lengthAdjust="spacing" textLength="94" x="915.5" y="312.1816">int hashCode()</text><ellipse cx="906.5" cy="326.5059" fill="#84BE84" rx="3" ry="3" style="stroke:#038048;stroke-width:1.0;"/><text fill="#000000" font-family="sans-serif" font-size="14" lengthAdjust="spacing" textLength="100" x="915.5" y="330.8027">String toString()</text></g><!--class CreateBouquet--><g id="elem_CreateBouquet"><rect codeLine="248" fill="#F1F1F1" height="81.2422" id="CreateBouquet" rx="2.5" ry="2.5" style="stroke:#181818;stroke-width:0.5;" width="159" x="1397.5" y="132"/><ellipse cx="1426.45" cy="148" fill="#ADD1B2" rx="11" ry="11" style="stroke:#181818;stroke-width:1.0;"/><path d="M1429.2156,143.875 Q1429.3719,143.6563 1429.5594,143.5469 Q1429.7469,143.4375 1429.9656,143.4375 Q1430.3406,143.4375 1430.575,143.7031 Q1430.8094,143.9531 1430.8094,144.5625 L1430.8094,146.0156 Q1430.8094,146.625 1430.575,146.8906 Q1430.3406,147.1563 1429.9656,147.1563 Q1429.6219,147.1563 1429.4188,146.9531 Q1429.2156,146.7656 1429.1063,146.25 Q1429.0594,145.8906 1428.8719,145.7031 Q1428.5438,145.3281 1427.9344,145.1094 Q1427.325,144.8906 1426.7,144.8906 Q1425.9344,144.8906 1425.2938,145.2188 Q1424.6688,145.5469 1424.1688,146.2969 Q1423.6844,147.0469 1423.6844,148.0781 L1423.6844,149.1719 Q1423.6844,150.4063 1424.575,151.2344 Q1425.4656,152.0469 1427.0594,152.0469 Q1427.9969,152.0469 1428.6531,151.7969 Q1429.0438,151.6406 1429.4656,151.2031 Q1429.7313,150.9375 1429.8719,150.8594 Q1430.0281,150.7813 1430.2313,150.7813 Q1430.5594,150.7813 1430.8094,151.0469 Q1431.075,151.2969 1431.075,151.6406 Q1431.075,151.9844 1430.7313,152.3906 Q1430.2313,152.9688 1429.4344,153.2969 Q1428.3563,153.75 1427.0594,153.75 Q1425.5438,153.75 1424.3406,153.125 Q1423.3563,152.625 1422.6688,151.5625 Q1421.9813,150.4844 1421.9813,149.2031 L1421.9813,148.0469 Q1421.9813,146.7188 1422.5906,145.5781 Q1423.2156,144.4219 1424.3094,143.8125 Q1425.4031,143.1875 1426.6375,143.1875 Q1427.3719,143.1875 1428.0125,143.3594 Q1428.6688,143.5156 1429.2156,143.875 Z " fill="#000000"/><text fill="#000000" font-family="sans-serif" font-size="14" lengthAdjust="spacing" textLength="96" x="1443.55" y="153.7969">CreateBouquet</text><line style="stroke:#181818;stroke-width:0.5;" x1="1398.5" x2="1555.5" y1="164" y2="164"/><ellipse cx="1408.5" cy="201.4316" fill="#84BE84" rx="3" ry="3" style="stroke:#038048;stroke-width:1.0;"/><text fill="#000000" font-family="sans-serif" font-size="14" lengthAdjust="spacing" text-decoration="underline" textLength="133" x="1417.5" y="205.7285">void createBouquet()</text><line style="stroke:#181818;stroke-width:1.0;" x1="1398.5" x2="1450" y1="181.3105" y2="181.3105"/><line style="stroke:#181818;stroke-width:1.0;" x1="1398.5" x2="1450" y1="183.3105" y2="183.3105"/><text fill="#000000" font-family="sans-serif" font-size="14" lengthAdjust="spacing" textLength="54" x="1450" y="186.6074">Methods</text><line style="stroke:#181818;stroke-width:1.0;" x1="1504" x2="1555.5" y1="181.3105" y2="181.3105"/><line style="stroke:#181818;stroke-width:1.0;" x1="1504" x2="1555.5" y1="183.3105" y2="183.3105"/></g><!--reverse link Flower to DriedFlower--><g id="link_Flower_DriedFlower"><path codeLine="136" d="M824.1758,573.949 C712.0858,595.569 539.7,640.37 404,735.5 C361.11,765.57 326.51,817.37 308.83,847.31 " fill="none" id="Flower-backto-DriedFlower" style="stroke:#181818;stroke-width:1.0;"/><polygon fill="none" points="841.85,570.54,823.0394,568.0576,825.3121,579.8404,841.85,570.54" style="stroke:#181818;stroke-width:1.0;"/></g><!--reverse link Flower to BushFlower--><g id="link_Flower_BushFlower"><path codeLine="137" d="M830.9607,692.0574 C805.0007,726.1274 788.18,748.2 763.89,780.08 " fill="none" id="Flower-backto-BushFlower" style="stroke:#181818;stroke-width:1.0;"/><polygon fill="none" points="841.87,677.74,826.1883,688.421,835.7332,695.6938,841.87,677.74" style="stroke:#181818;stroke-width:1.0;"/></g><!--reverse link Flower to BulbousFlower--><g id="link_Flower_BulbousFlower"><path codeLine="138" d="M1039.0395,692.0572 C1067.4995,729.4072 1087.18,755.24 1113.03,789.17 " fill="none" id="Flower-backto-BulbousFlower" style="stroke:#181818;stroke-width:1.0;"/><polygon fill="none" points="1028.13,677.74,1034.2671,695.6937,1043.8119,688.4208,1028.13,677.74" style="stroke:#181818;stroke-width:1.0;"/></g><!--reverse link Flower to MeadowFlower--><g id="link_Flower_MeadowFlower"><path codeLine="139" d="M935,729.15 C935,756.12 935,765.17 935,789.12 " fill="none" id="Flower-backto-MeadowFlower" style="stroke:#181818;stroke-width:1.0;"/><polygon fill="none" points="935,711.15,929,729.15,941,729.15,935,711.15" style="stroke:#181818;stroke-width:1.0;"/></g><!--reverse link DriedFlower to Echinops--><g id="link_DriedFlower_Echinops"><path codeLine="141" d="M271.6598,910.8809 C250.1798,944.7509 218.56,994.6 183.15,1050.43 " fill="none" id="DriedFlower-backto-Echinops" style="stroke:#181818;stroke-width:1.0;"/><polygon fill="none" points="281.3,895.68,266.5928,907.6674,276.7267,914.0943,281.3,895.68" style="stroke:#181818;stroke-width:1.0;"/></g><!--reverse link DriedFlower to Gypsophila--><g id="link_DriedFlower_Gypsophila"><path codeLine="142" d="M296,913.68 C296,951.33 296,1009.5 296,1068.72 " fill="none" id="DriedFlower-backto-Gypsophila" style="stroke:#181818;stroke-width:1.0;"/><polygon fill="none" points="296,895.68,290,913.68,302,913.68,296,895.68" style="stroke:#181818;stroke-width:1.0;"/></g><!--reverse link BushFlower to Lilac--><g id="link_BushFlower_Lilac"><path codeLine="144" d="M624.2257,977.5234 C609.3957,999.5134 603.38,1008.46 587.81,1031.56 " fill="none" id="BushFlower-backto-Lilac" style="stroke:#181818;stroke-width:1.0;"/><polygon fill="none" points="634.29,962.6,619.2512,974.1687,629.2001,980.8782,634.29,962.6" style="stroke:#181818;stroke-width:1.0;"/></g><!--reverse link BushFlower to Rose--><g id="link_BushFlower_Rose"><path codeLine="145" d="M700.4546,980.5773 C702.1746,1014.7573 703.22,1035.48 704.9,1068.79 " fill="none" id="BushFlower-backto-Rose" style="stroke:#181818;stroke-width:1.0;"/><polygon fill="none" points="699.55,962.6,694.4622,980.8788,706.4471,980.2757,699.55,962.6" style="stroke:#181818;stroke-width:1.0;"/></g><!--reverse link BulbousFlower to Narcissus--><g id="link_BulbousFlower_Narcissus"><path codeLine="147" d="M1174.2862,971.5095 C1174.0162,1007.8295 1173.85,1032.56 1173.58,1068.89 " fill="none" id="BulbousFlower-backto-Narcissus" style="stroke:#181818;stroke-width:1.0;"/><polygon fill="none" points="1174.42,953.51,1168.2864,971.4649,1180.286,971.5541,1174.42,953.51" style="stroke:#181818;stroke-width:1.0;"/></g><!--reverse link BulbousFlower to Tulip--><g id="link_BulbousFlower_Tulip"><path codeLine="148" d="M1241.2918,968.3122 C1266.4218,1004.6322 1285.75,1032.56 1310.88,1068.89 " fill="none" id="BulbousFlower-backto-Tulip" style="stroke:#181818;stroke-width:1.0;"/><polygon fill="none" points="1231.05,953.51,1236.3577,971.7262,1246.2258,964.8983,1231.05,953.51" style="stroke:#181818;stroke-width:1.0;"/></g><!--reverse link MeadowFlower to Chamomile--><g id="link_MeadowFlower_Chamomile"><path codeLine="150" d="M935,971.51 C935,1015.82 935,1051.7 935,1091.82 " fill="none" id="MeadowFlower-backto-Chamomile" style="stroke:#181818;stroke-width:1.0;"/><polygon fill="none" points="935,953.51,929,971.51,941,971.51,935,953.51" style="stroke:#181818;stroke-width:1.0;"/></g><!--reverse link Accessory to Basket--><g id="link_Accessory_Basket"><path codeLine="209" d="M1683.5963,689.4237 C1662.1563,728.0037 1647.6,754.21 1628.04,789.43 " fill="none" id="Accessory-backto-Basket" style="stroke:#181818;stroke-width:1.0;"/><polygon fill="none" points="1692.34,673.69,1678.3518,686.5091,1688.8409,692.3382,1692.34,673.69" style="stroke:#181818;stroke-width:1.0;"/></g><!--reverse link Accessory to Postcard--><g id="link_Accessory_Postcard"><path codeLine="210" d="M1758,691.69 C1758,730.27 1758,754.21 1758,789.43 " fill="none" id="Accessory-backto-Postcard" style="stroke:#181818;stroke-width:1.0;"/><polygon fill="none" points="1758,673.69,1752,691.69,1764,691.69,1758,673.69" style="stroke:#181818;stroke-width:1.0;"/></g><!--reverse link Accessory to Ribbon--><g id="link_Accessory_Ribbon"><path codeLine="211" d="M1832.4031,689.424 C1856.6531,733.064 1874.54,765.28 1895.46,802.92 " fill="none" id="Accessory-backto-Ribbon" style="stroke:#181818;stroke-width:1.0;"/><polygon fill="none" points="1823.66,673.69,1827.1584,692.3383,1837.6478,686.5096,1823.66,673.69" style="stroke:#181818;stroke-width:1.0;"/></g><!--reverse link Accessory to WrappingPaper--><g id="link_Accessory_WrappingPaper"><path codeLine="212" d="M1847.0911,604.6926 C1902.5111,637.3226 1962.49,678.15 2017,735.5 C2027.17,746.2 2036.76,758.33 2045.57,770.82 " fill="none" id="Accessory-backto-WrappingPaper" style="stroke:#181818;stroke-width:1.0;"/><polygon fill="none" points="1831.58,595.56,1844.0469,609.863,1850.1353,599.5222,1831.58,595.56" style="stroke:#181818;stroke-width:1.0;"/></g><!--reverse link Bouquet to Flower--><g id="link_Bouquet_Flower"><path codeLine="253" d="M986.9814,349.867 C981.9414,369.607 979.77,378.1 974.77,397.71 " fill="none" id="Bouquet-backto-Flower" style="stroke:#181818;stroke-width:1.0;"/><polygon fill="#181818" points="989.95,338.24,984.59,343.064,986.9814,349.867,992.3414,345.043,989.95,338.24" style="stroke:#181818;stroke-width:1.0;"/></g><!--reverse link Bouquet to Accessory--><g id="link_Bouquet_Accessory"><path codeLine="254" d="M1179.5822,254.7979 C1242.2622,286.5879 1307.82,315.81 1380,338 C1421.28,350.69 1436,336.72 1476,353 C1553.76,384.65 1630.66,441.49 1684.46,486.59 " fill="none" id="Bouquet-backto-Accessory" style="stroke:#181818;stroke-width:1.0;"/><polygon fill="#181818" points="1168.88,249.37,1172.4218,255.6514,1179.5822,254.7979,1176.0404,248.5166,1168.88,249.37" style="stroke:#181818;stroke-width:1.0;"/></g><!--SRC=[rLTVJzim47_FfuZ4opQKVG90egMTa2X3BH9xTHoJM3Xsi9sXZl7TvoIEOoSEQQKj4trgxtTtlZ- -dwy5W4yWHU4ZOI-8Y_3aglw4hq6eFY0MaWCeGqY04E6wLj9OzJa9Tv9ZceQG4SOjCQOoVEH8P1G9OSaJLiO4XKAY_0RHL6Ozcu9ZY8pi_3pS89cnHAYlHdhQ7feYkQpE_VJPmYel2bYtXpkWFbxXEnE1p_gk2iC1OiO80ZJ4uffMjbj0KrUZ2-eMv3OKHHu_wBa4H0pEpe38bYpnUfQi-QAnj-0j20gtVLyJZb7IQsBJkwiAQHeOME8Lp31bXR2Q6bd9tYFEzrva0NYCaibMzLoDrBHnDaVDhDI_xGl1YWmJS53onsSuP-FZKcJUlYyKu9dRDXnrxXh9KdWWBDQS2Rb50Wi9g9oin4-6ar3uPs-EXjweLa9lBvN7LP8gCmlJ3b4jNphyDTLgusw405QTJqUZBT0K_XSAE1xVUnNSCe762hWhy1CInzIeiVXF0v4ZaB0NxqXiQcWm5D77lVdB3EGinyHktbI3_XaHaPYLOeIBQkmTElfmbRy5768XIlS1rOO2GKQJmxYbOuzTPpLpClSbmOKtaGmKnwnbkqf_fi7Nj-diTnGvIuujxnx1djYwZmvYKqGGM6uRkDsQXaYtL0I1zVJMMFq-3QGLvrQwzcZKWBbQFh1kLH0uL5O3XWg2RZO1X6eoc8frOi6_r8fxPpY7Y_detg_5EP28Oq0chypelltUYjzX6ttEp7Eo0E89IU-Wu5z7pObIdpdsEqMl4F345xtY7OaE85sxERN5p3biSHmpwcHGkIFkFyev7a0hg0SEYa9XTuhw-22s5vnOeHqLhvwHyN-h3vNlcTYsOuY6GUj9w4lREzQNDtthIvt2TQI5Q9dtwQgIgIBHKlrXj4gy-xwzDp_MrxTNviVgn_Lz5xn-vLJC6u3R-pCi-sdugfOFYU5RirxaIbdN8EeWNIH5Z5Gs12mcb5X9zLkX54qu2rO-buPDeXxRHk4bvs1_ezQXiyRsebsr1hYfwuND-AD9cjN92VxKSs0wL6gDBxk3F0wiY5AVhbMfAcq822o9ulHrIOZz9epgrL4TecaYiPNRD1Xlyrli-uka7gQHGV8EaM-0JBkN7AbmtAPFNq5eMpNkMXTVr0ZfHSKMcOI3Fm00]--></g></svg>